<?xml version="1.0" encoding="utf-8"?>
<!-- Generator: Adobe Illustrator 22.1.0, SVG Export Plug-In . SVG Version: 6.00 Build 0)  -->
<svg version="1.1" id="Ebene_1" xmlns="http://www.w3.org/2000/svg" xmlns:xlink="http://www.w3.org/1999/xlink" x="0px" y="0px"
	 viewBox="0 0 3032.5 200" enable-background="new 0 0 3032.5 200" xml:space="preserve">
<g id="Christoph_Stockinger">
	<g id="Christoph_1_">
		<path fill="#00AE2F" d="M136.6,149.3v-14.6c0-4.6-2.3-6.9-6.8-6.9h-26.1c-4.4,0-6.5,2.3-6.5,6.9v12.7c0,6.7-1.4,11.4-4.2,14.2
			c-2.8,2.8-7.5,4.2-14.2,4.2H57.5c-6.4,0-11-1.4-13.8-4.2s-4.2-7.5-4.2-14.2V52.6c0-6.6,1.4-11.3,4.2-14.2
			c2.8-2.8,7.4-4.2,13.8-4.2h21.1c6.6,0,11.4,1.4,14.2,4.2c2.8,2.8,4.2,7.5,4.2,14.2v12.8c0,4.6,2.2,6.9,6.5,6.9h26.1
			c4.6,0,6.8-2.3,6.8-6.9V50.7c0-16.2-4.5-28.7-13.5-37.5C114,4.4,101.4,0,85.2,0H51.3c-16.4,0-29,4.4-38,13.1
			C4.5,21.8,0,34.3,0,50.7v98.6c0,16.2,4.4,28.7,13.2,37.4l120.4-17.4C135.5,163.4,136.6,156.8,136.6,149.3z"/>
		<path fill="#0A0A0A" d="M170.4,193.5c0,4.4,2.2,6.5,6.5,6.5h26.4c4.4,0,6.5-2.2,6.5-6.5v-12.4l-39.5,5.7v6.7H170.4z"/>
		<path fill="#0A0A0A" d="M269.7,193.5c0,4.4,2.2,6.5,6.5,6.5h26.4c4.4,0,6.5-2.2,6.5-6.5v-26.8l-39.5,5.7v21.1H269.7z"/>
		<path fill="#00AE2F" d="M210,120.7c0-2.3,1.2-3.4,3.7-3.4h52.6c2.3,0,3.4,1.2,3.4,3.4v28.9l39.5-5.7V6.5c0-4.4-2.2-6.5-6.5-6.5
			h-26.4c-4.4,0-6.5,2.2-6.5,6.5v73.1c0,2.3-1.1,3.4-3.4,3.4h-52.6c-2.5,0-3.7-1.1-3.7-3.4V6.5c0-4.4-2.2-6.5-6.5-6.5H177
			c-4.4,0-6.5,2.2-6.5,6.5V164l39.5-5.7V120.7z"/>
		<path fill="#00AE2F" d="M389.1,129.7c0-2.3,1.2-3.4,3.7-3.4h20.8l1.1,2.3l39.4-5.7v-1c18.5-7.7,27.7-23.2,27.7-46.7V51
			c0-16.2-4.6-28.7-13.7-37.6S446.3,0,430.2,0h-74c-4.4,0-6.5,2.2-6.5,6.5V138l39.5-5.7v-2.6H389.1z M389.1,37.6
			c0-2.3,1.1-3.4,3.4-3.4H423c6.6,0,11.5,1.5,14.6,4.4s4.7,7.6,4.7,14v24.3c0,6.2-1.6,10.7-4.7,13.5s-8,4.2-14.6,4.2h-30.5
			c-2.3,0-3.4-1.1-3.4-3.4V37.6z"/>
		<path fill="#0A0A0A" d="M349.6,193.5c0,4.4,2.2,6.5,6.5,6.5h26.4c4.4,0,6.5-2.2,6.5-6.5v-38.3l-39.5,5.7v32.6H349.6z"/>
		<path fill="#0A0A0A" d="M444.8,193.5c1,2.7,2.4,4.5,4,5.3c1.7,0.8,4.4,1.2,8.1,1.2h25.2c5.4,0,7.2-2.5,5.3-7.5l-23.2-48.2
			l-39.6,5.7L444.8,193.5z"/>
		<path fill="#0A0A0A" d="M521.3,193.5c0,4.4,2.2,6.5,6.5,6.5h26.4c4.4,0,6.5-2.2,6.5-6.5v-63.1l-39.5,5.7L521.3,193.5L521.3,193.5z
			"/>
		<path fill="#00AE2F" d="M560.8,6.5c0-4.4-2.2-6.5-6.5-6.5h-26.4c-4.4,0-6.5,2.2-6.5,6.5v106.7l39.5-5.7L560.8,6.5L560.8,6.5z"/>
		<path fill="#00AE2F" d="M662.5,80.5c-17-1.4-25.5-7-25.5-16.8v-5.9c0-9.3,1.5-15.6,4.5-18.8c3-3.2,8.8-4.8,17.3-4.8h12.1
			c8.3,0,14,1.5,17.1,4.4s4.7,8.4,4.7,16.5V57c0,4.4,2.2,6.5,6.5,6.5h26.4c4.4,0,6.5-2.2,6.5-6.5v-6c0-16.2-4.6-28.7-13.7-37.6
			C709.4,4.5,696.6,0,680.3,0h-31.1c-16.2,0-28.8,4.5-37.9,13.4c-9.1,8.9-13.7,21.5-13.7,37.6v10.9c0,12.9,2.4,23.4,7.3,31.6
			c1.6,2.6,3.3,4.9,5.1,7l89.4-12.9C688.2,84,675.9,81.7,662.5,80.5z"/>
		<path fill="#0A0A0A" d="M670,120.4c7.3,0.6,13.3,2.6,18.2,5.8s7.3,7.8,7.3,13.8v3.7c0,8.5-1.6,14.3-4.8,17.4
			c-3.2,3.1-8.9,4.7-16.9,4.7h-14.6c-8.3,0-14-1.4-17.1-4.4c-3.1-2.9-4.7-8.3-4.7-16.2v-2.5c0-4.4-2.2-6.5-6.5-6.5h-26.4
			c-4.4,0-6.5,2.2-6.5,6.5v6.2c0,16.2,4.6,28.7,13.7,37.6c9.1,8.9,21.8,13.4,37.9,13.4h33.9c16.2,0,28.8-4.5,37.9-13.4
			c9.1-8.9,13.7-21.5,13.7-37.6v-10.6c0-12.5-2.4-22.7-7.3-30.6c-0.3-0.5-0.7-0.9-1-1.4L650,117.4
			C657.1,118.8,663.8,119.8,670,120.4z"/>
		<path fill="#0A0A0A" d="M799.4,193.5c0,4.4,2.3,6.5,6.8,6.5h26.1c4.4,0,6.5-2.2,6.5-6.5V90.1l-39.5,5.7v97.7H799.4z"/>
		<path fill="#00AE2F" d="M838.9,37.6c0-2.3,1.2-3.4,3.7-3.4h35.5c4.4,0,6.5-2.2,6.5-6.5V6.5c0-4.4-2.2-6.5-6.5-6.5H760.5
			c-4.4,0-6.5,2.2-6.5,6.5v21.1c0,4.4,2.2,6.5,6.5,6.5H796c2.3,0,3.4,1.2,3.4,3.4V73l39.5-5.7V37.6z"/>
		<path fill="#0A0A0A" d="M1003.1,147.4c0,6.7-1.4,11.4-4.2,14.2s-7.5,4.2-14.2,4.2h-22.1c-6.6,0-11.3-1.4-14-4.2s-4-7.5-4-14.2
			V74.8l-39.5,5.7v68.7c0,16.4,4.5,28.9,13.4,37.6s21.6,13.1,38,13.1h34.8c16.4,0,29-4.4,38-13.1c8.9-8.7,13.4-21.3,13.4-37.6V60.7
			l-39.5,5.7v81H1003.1z"/>
		<path fill="#00AE2F" d="M948.7,38.4c2.7-2.8,7.4-4.2,14-4.2h22.1c6.6,0,11.4,1.4,14.2,4.2c1.3,1.3,2.3,3.1,3,5.4l39.6-5.7
			c-1.8-10.3-5.8-18.7-12.3-25c-8.9-8.7-21.6-13.1-38-13.1h-34.8c-16.4,0-29,4.4-38,13.1c-8.9,8.7-13.4,21.3-13.4,37.6v7l39.5-5.7
			C944.7,45.7,946.1,41.1,948.7,38.4z"/>
		<path fill="#0A0A0A" d="M1173.9,52.6v26.1c0,6.4-1.3,11-4,13.8s-7.4,4.2-14,4.2h-33c-2.3,0-3.4-1.1-3.4-3.4V49.6l-39.5,5.7v138.2
			c0,4.4,2.2,6.5,6.5,6.5h26.4c4.4,0,6.5-2.2,6.5-6.5v-58.8c0-2.3,1.2-3.4,3.7-3.4h39.2c16.2,0,28.7-4.4,37.6-13.2
			s13.4-21.3,13.4-37.5V50.7c0-5.3-0.6-10-1.6-14.5L1172,42C1173.2,44.7,1173.9,48.2,1173.9,52.6z"/>
		<path fill="#00AE2F" d="M1200,13.2c-8.9-8.8-21.5-13.2-37.6-13.2h-75.9c-4.4,0-6.5,2.2-6.5,6.5v25.9l121.4-17.6
			C1200.9,14.4,1200.5,13.7,1200,13.2z"/>
		<path fill="#0A0A0A" d="M1344,79.6c0,2.3-1.1,3.4-3.4,3.4H1288c-2.5,0-3.7-1.1-3.7-3.4V25.7l-39.5,5.7v162c0,4.4,2.2,6.5,6.5,6.5
			h26.4c4.4,0,6.5-2.2,6.5-6.5v-72.8c0-2.3,1.2-3.4,3.7-3.4h52.6c2.3,0,3.4,1.2,3.4,3.4v72.8c0,4.4,2.2,6.5,6.5,6.5h26.4
			c4.4,0,6.5-2.2,6.5-6.5v-182l-39.5,5.7v62.5C1343.8,79.6,1344,79.6,1344,79.6z"/>
		<path fill="#00AE2F" d="M1277.8,0h-26.4c-4.4,0-6.5,2.2-6.5,6.5v2.1l38.7-5.6C1282.6,1.1,1280.7,0,1277.8,0z"/>
	</g>
	<g id="Stockinger">
		<g>
			<path fill="#00AE2F" d="M1624.6,149v-10.6c0-12.5-2.4-22.7-7.3-30.6c-4.9-8-10.9-13.5-18.2-16.7c-13.7-5.6-29.4-9.1-47-10.6
				c-17-1.4-25.5-7-25.5-16.8v-5.9c0-9.3,1.5-15.6,4.5-18.8c3-3.2,8.8-4.8,17.3-4.8h12.1c8.3,0,14,1.5,17.1,4.4s4.7,8.4,4.7,16.5V57
				c0,4.4,2.2,6.5,6.5,6.5h26.4c4.4,0,6.5-2.2,6.5-6.5v-6c0-16.2-4.6-28.7-13.7-37.6c-9-8.9-21.8-13.4-38.2-13.4h-31.1
				c-16.2,0-28.8,4.5-37.9,13.4s-13.7,21.5-13.7,37.6v10.9c0,12.9,2.4,23.4,7.3,31.6s10.9,13.7,18.2,16.5c7.3,2.8,15.1,5.1,23.5,6.8
				c8.4,1.8,16.2,3,23.5,3.6s13.3,2.6,18.2,5.8c4.9,3.2,7.3,7.8,7.3,13.8v3.7c0,8.5-1.6,14.3-4.8,17.4c-3.2,3.1-8.9,4.7-16.9,4.7
				h-14.6c-8.3,0-14-1.4-17.1-4.4c-3.1-2.9-4.7-8.3-4.7-16.2v-2.5c0-4.4-2.2-6.5-6.5-6.5h-26.4c-4.4,0-6.5,2.2-6.5,6.5v6.2
				c0,16.2,4.6,28.7,13.7,37.6c0.1,0.1,0.1,0.1,0.2,0.1l119.5-15.5C1623.3,164.8,1624.6,157.4,1624.6,149z"/>
			<path fill="#00AE2F" d="M1728.5,37.6c0-2.3,1.2-3.4,3.7-3.4h35.5c4.4,0,6.5-2.2,6.5-6.5V6.5c0-4.4-2.2-6.5-6.5-6.5h-117.6
				c-4.4,0-6.5,2.2-6.5,6.5v21.1c0,4.4,2.2,6.5,6.5,6.5h35.5c2.3,0,3.4,1.2,3.4,3.4v124.8l39.5-5.1V37.6z"/>
			<path fill="#00AE2F" d="M1834.2,52.6c0-6.6,1.3-11.3,4-14.2c2.7-2.8,7.4-4.2,14-4.2h22.1c6.6,0,11.4,1.4,14.1,4.2
				c2.8,2.8,4.2,7.5,4.2,14.2v83.6l39.5-5.1V50.7c0-16.4-4.5-28.9-13.4-37.6S1897.1,0,1880.7,0H1846c-16.4,0-29,4.4-38,13.1
				c-8.9,8.7-13.4,21.3-13.4,37.6v98.1l39.5-5.1L1834.2,52.6L1834.2,52.6z"/>
			<path fill="#00AE2F" d="M2005.9,52.6c0-6.6,1.4-11.3,4.2-14.2c2.8-2.8,7.4-4.2,13.8-4.2h21.1c6.6,0,11.4,1.4,14.2,4.2
				s4.2,7.5,4.2,14.2v12.8c0,4.6,2.2,6.9,6.5,6.9h26.1c4.6,0,6.8-2.3,6.8-6.9V50.7c0-16.2-4.5-28.7-13.5-37.5S2067.7,0,2051.5,0
				h-33.9c-16.4,0-29,4.4-38,13.1c-8.9,8.7-13.4,21.3-13.4,37.6v75.9l39.5-5.1V52.6H2005.9z"/>
			<path fill="#00AE2F" d="M2219.9,89L2279,7.1c1.7-2,2.2-3.8,1.7-5.1s-1.9-2-4.2-2H2246c-5.4,0-9.4,2.2-12.1,6.5l-47.3,69.4
				c-4.8,7.9-8,14.3-9.6,19.3h-0.6V6.5c0-4.4-2.2-6.5-6.5-6.5h-26.4c-4.4,0-6.5,2.2-6.5,6.5v98l85.9-11.1L2219.9,89z"/>
			<path fill="#00AE2F" d="M2351.5,6.5c0-4.4-2.2-6.5-6.5-6.5h-26.4c-4.4,0-6.5,2.2-6.5,6.5v75.3l39.5-5.1V6.5H2351.5z"/>
			<path fill="#00AE2F" d="M2432,4.4c-1.5-2.9-4.4-4.4-8.7-4.4H2400c-4.4,0-6.5,2.2-6.5,6.5v64.8l69.5-9L2432,4.4z"/>
			<path fill="#00AE2F" d="M2535,6.5c0-4.4-2.2-6.5-6.5-6.5h-25.8c-4.4,0-6.5,2.2-6.5,6.5V58l38.9-5L2535,6.5L2535,6.5z"/>
			<path fill="#00AE2F" d="M2616,38.4c2.8-2.8,7.4-4.2,13.8-4.2h20.2c5,0,8.9,0.8,11.6,2.4l43-5.6c-2.2-7-5.6-13-10.5-17.8
				c-8.9-8.8-21.5-13.2-37.6-13.2h-33c-16.4,0-29,4.4-38,13.1c-8.4,8.2-12.7,20-13.2,35.1l40.9-5.3C2614,41.1,2614.9,39.5,2616,38.4
				z"/>
			<path fill="#00AE2F" d="M2859.4,6.5c0-4.4-2.1-6.5-6.2-6.5h-101.7c-4.4,0-6.5,2.2-6.5,6.5v19.3L2859.4,11V6.5z"/>
			<path fill="#00AE2F" d="M2900.5,0c-4.4,0-6.5,2.2-6.5,6.5l0,0l50.5-6.5H2900.5z"/>
		</g>
		<g>
			<path fill="#0A0A0A" d="M1688.9,193.5c0,4.4,2.3,6.5,6.8,6.5h26.1c4.4,0,6.5-2.2,6.5-6.5v-13.3l-39.5,5.1L1688.9,193.5
				L1688.9,193.5z"/>
			<path fill="#0A0A0A" d="M1888.5,161.6c-2.8,2.8-7.5,4.2-14.1,4.2h-22.1c-2.7,0-5-0.3-7-0.7l-47.1,6.1c2.2,6.2,5.5,11.5,10,15.8
				c8.9,8.7,21.6,13.1,38,13.1h34.8c16.4,0,29-4.4,38-13.1c8-7.9,12.3-19,13-33.1l-41.6,5.4C1889.7,160.1,1889.2,160.9,1888.5,161.6
				z"/>
			<path fill="#0A0A0A" d="M2063.4,147.4c0,6.7-1.4,11.4-4.2,14.2s-7.5,4.2-14.2,4.2h-21.1c-6.4,0-11-1.4-13.8-4.2
				s-4.2-7.5-4.2-14.2v-3.2l-39.5,5.1c0,16.4,4.5,28.9,13.4,37.6s21.6,13.1,38,13.1h33.9c16.2,0,28.8-4.4,37.8-13.2
				s13.5-21.3,13.5-37.5v-14.6c0-1.1-0.1-2.1-0.4-3l-39.1,5.1v10.6L2063.4,147.4L2063.4,147.4z"/>
			<path fill="#0A0A0A" d="M2136.9,193.5c0,4.4,2.2,6.5,6.5,6.5h26.4c4.4,0,6.5-2.2,6.5-6.5v-53.2l17.3-20.3l-56.8,7.4v66.1H2136.9z
				"/>
			<path fill="#0A0A0A" d="M2243.5,193.5c2.5,4.4,7.4,6.5,14.6,6.5h22.7c2.9,0,4.8-0.7,5.8-2c0.9-1.3,0.7-3.3-0.8-5.7l-49.7-77.8
				l-38.8,5L2243.5,193.5z"/>
			<path fill="#0A0A0A" d="M2312,193.5c0,4.4,2.2,6.5,6.5,6.5h26.4c4.4,0,6.5-2.2,6.5-6.5v-94l-39.5,5.1v88.9H2312z"/>
			<path fill="#0A0A0A" d="M2393.5,193.5c0,4.4,2.2,6.5,6.5,6.5h25.8c4.4,0,6.5-2.2,6.5-6.5V89l-38.9,5L2393.5,193.5L2393.5,193.5z"
				/>
			<path fill="#0A0A0A" d="M2496.1,122.2h-1.3l-20.6-38.6l-35.3,4.6l56.8,105.6c2.1,4.2,5.4,6.2,9.9,6.2h22.7c4.4,0,6.5-2.2,6.5-6.5
				V75.8l-38.9,5v41.4C2495.9,122.2,2496.1,122.2,2496.1,122.2z"/>
			<path fill="#0A0A0A" d="M2572.3,149.3c0,16.4,4.5,28.9,13.4,37.6s21.6,13.1,38,13.1h33c16.2,0,28.7-4.4,37.6-13.2
				c8.9-8.8,13.4-21.3,13.4-37.5V97.4c0-4.8-2.4-7.2-7.2-7.2H2646c-4.4,0-6.5,2.2-6.5,6.5v21.2c0,4.4,2.2,6.5,6.5,6.5h18.7
				c2.3,0,3.4,1.1,3.4,3.4v19.6c0,6.7-1.4,11.4-4,14.2c-2.7,2.8-7.4,4.2-14,4.2h-20.2c-6.4,0-11-1.4-13.8-4.2s-4.2-7.5-4.2-14.2
				V65.8l-39.5,5.1L2572.3,149.3L2572.3,149.3z"/>
			<path fill="#0A0A0A" d="M2668.1,60c0,4.6,2.2,6.9,6.5,6.9h26.4c4.4,0,6.5-2.3,6.5-6.9v-6.6l-39.5,5.1V60H2668.1z"/>
			<path fill="#0A0A0A" d="M2745,193.5c0,4.4,2.2,6.5,6.5,6.5h101.7c4.1,0,6.2-2.2,6.2-6.5v-21.2c0-4.4-2.1-6.5-6.2-6.5h-65
				c-2.5,0-3.7-1.1-3.7-3.4v-43.2c0-2.3,1.2-3.4,3.7-3.4h53.2c4.4,0,6.5-2.2,6.5-6.5V88c0-4.4-2.2-6.5-6.5-6.5h-53.2
				c-2.5,0-3.7-1.1-3.7-3.4V43.5l-39.5,5.1V193.5z"/>
			<path fill="#0A0A0A" d="M2893.9,193.5c0,4.4,2.2,6.5,6.5,6.5h26.4c4.4,0,6.5-2.2,6.5-6.5v-63.8c0-2.3,1.2-3.4,3.7-3.4h20.8
				l31.1,67.2c1,2.7,2.4,4.5,4,5.3c1.7,0.8,4.4,1.2,8.1,1.2h25.2c5.4,0,7.2-2.5,5.3-7.5l-33.3-69.4v-1.2
				c18.5-7.7,27.7-23.2,27.7-46.7V51c0-15.9-4.4-28.2-13.2-37.1l-119,15.4v164.2H2893.9z M2933.5,37.6c0-2.3,1.1-3.4,3.4-3.4h30.5
				c6.6,0,11.5,1.5,14.6,4.4s4.7,7.6,4.7,14v24.3c0,6.2-1.6,10.7-4.7,13.5c-3.1,2.8-8,4.2-14.6,4.2h-30.5c-2.3,0-3.4-1.1-3.4-3.4
				V37.6z"/>
		</g>
	</g>
</g>
</svg>
