<svg xmlns="http://www.w3.org/2000/svg" viewBox="0 0 407.6 284.8"><path d="M62 243.9H21.7c-.3 0-.6.2-.7.5L9.8 275.1c-.1.3 0 .5.3.5h40.3l-3.3 9.2H6.8c-2.7 0-4.7-.9-5.8-2.8-1.2-1.9-1.3-4.2-.3-6.8l11.2-30.7c1-2.7 2.7-5 5.3-6.8 2.6-1.9 5.2-2.8 7.8-2.8h40.2l-3.2 9zM82.1 234.7h30.7c2.6 0 4.6.9 5.8 2.8s1.3 4.2.3 6.8L107.7 275c-1 2.7-2.7 5-5.3 6.8-2.6 1.9-5.2 2.8-7.8 2.8H63.9c-2.7 0-4.7-.9-5.8-2.8-1.2-1.9-1.3-4.2-.3-6.8L69 244.3c1-2.7 2.7-5 5.3-6.8 2.4-1.9 5.1-2.8 7.8-2.8zm-14.9 40.8h30.7c.3 0 .5-.2.6-.5l11.2-30.7c.1-.3.1-.5-.2-.5H78.7c-.3 0-.6.2-.7.5L66.8 275c-.1.4.1.5.4.5zM130.2 234.7h40.3c2.7 0 4.7.9 5.9 2.8s1.3 4.2.3 6.8L165.5 275c-1 2.7-2.7 5-5.3 6.8-2.6 1.9-5.2 2.8-7.9 2.8H112l18.2-49.9zm26.1 40.3l11.2-30.7c.1-.3 0-.5-.3-.5h-30.6c-.3 0-.6.2-.7.5L124.7 275c-.1.3 0 .5.3.5h30.6c.3 0 .5-.1.7-.5zM169.9 284.7l18.2-50h9.2l-18.2 50h-9.2zM230.6 271.4l13.4-36.7h9.2l-18.2 50h-10L207.6 248l-13.4 36.7H185l18.2-50h10l17.4 36.7zM307.6 244.3l-1.4 3.9H297l1.4-3.9c.1-.3 0-.5-.3-.5h-30.7c-.3 0-.6.2-.7.5L255.5 275c-.1.3 0 .5.3.5h30.6c.3 0 .6-.2.7-.5l3.4-9.4h-11.3l3.3-9.2h20.6l-6.8 18.6c-1 2.7-2.7 5-5.3 6.8-2.6 1.9-5.2 2.8-7.9 2.8h-30.6c-2.7 0-4.7-.9-5.8-2.8-1.2-1.9-1.3-4.2-.3-6.8l11.2-30.7c1-2.7 2.7-5 5.3-6.8 2.6-1.9 5.2-2.8 7.8-2.8h30.6c2.7 0 4.7.9 5.9 2.8 1.1 1.9 1.3 4.2.4 6.8z"/><g fill="orange"><path d="M323 234.7h32c2.6 0 4.6.9 5.8 2.8 1.2 1.9 1.3 4.1.3 6.8l-14.7 40.4h-9.1l14.7-40.4c.1-.3 0-.5-.3-.5h-32l3.3-9.1zM368.8 234.7h32c2.6 0 4.6.9 5.8 2.8 1.2 1.9 1.3 4.1.3 6.8l-14.7 40.4h-9.1l14.7-40.4c.1-.3 0-.5-.3-.5h-32l3.3-9.1z"/></g><g><path d="M50.5 169.8l46-126.4h118L230.3 0h-147c-8.7 0-16.4 5.5-19.4 13.7L1.4 185.4c-5 13.5 5.1 27.8 19.4 27.8h260.1l16.1-43.4H50.5z"/><path fill="orange" d="M359.3 26.9H230.8l-6 16.5h128.3l-61.7 169.8h16.5L371.7 38c2-5.4-2.1-11.1-7.8-11.1h-4.8.2z"/><path fill="orange" d="M395.9 0H240.7l-6 16.5h155.2l-3.7 10.3-67.8 186.4h16.5l65.5-180.1 6-16.5.4-1C409.5 7.9 404 0 395.9 0z"/></g></svg>