<svg xmlns="http://www.w3.org/2000/svg" viewBox="0 0 407.4 50.1"><path d="M61.9 9.2H21.7c-.3 0-.5.2-.7.5L9.9 40.4c-.1.3 0 .5.3.5h40.2l-3.3 9.2H6.8c-2.7 0-4.6-.9-5.8-2.8s-1.3-4.2-.3-6.8L11.9 9.8c1-2.7 2.7-5 5.3-6.8C19.8 1.1 22.4.2 25.1.2h40.2l-3.4 9zM82 .1h30.7c2.6 0 4.6.9 5.8 2.8 1.2 1.9 1.3 4.2.4 6.8l-11.3 30.7c-1 2.7-2.8 5-5.3 6.8-2.6 1.9-5.2 2.8-7.8 2.8H63.8c-2.7 0-4.6-.9-5.8-2.8-1.2-1.9-1.3-4.2-.3-6.8L68.9 9.7c1-2.7 2.7-5 5.3-6.8C76.7 1 79.3.1 82 .1zM67.1 40.9h30.7c.3 0 .5-.2.6-.5l11.2-30.7c.1-.3 0-.5-.2-.5H78.7c-.3 0-.5.2-.7.5L66.8 40.4c-.1.3 0 .5.3.5zM130.1.1h40.3c2.7 0 4.6.9 5.9 2.8 1.2 1.9 1.3 4.2.4 6.8l-11.3 30.7c-1 2.7-2.8 5-5.3 6.8-2.6 1.9-5.2 2.8-7.9 2.8h-40.3L130.1.1zm26.1 40.3l11.2-30.7c.1-.3 0-.5-.3-.5h-30.6c-.3 0-.5.2-.7.5l-11.2 30.7c-.1.3 0 .5.3.5h30.6c.3 0 .6-.2.7-.5zM169.8 50.1L188 .1h9.2l-18.2 50h-9.2zM230.6 36.7L243.9 0h9.2l-18.2 50h-10l-17.4-36.6-13.3 36.7H185l18.2-50h10l17.4 36.6zM307.4 9.7l-1.4 3.9h-9.2l1.4-3.9c.1-.3 0-.5-.3-.5h-30.6c-.3 0-.5.2-.7.5l-11.2 30.7c-.1.3 0 .5.3.5h30.6c.3 0 .5-.2.7-.5l3.4-9.4h-11.3l3.3-9.2H303l-6.7 18.6c-1 2.7-2.8 5-5.3 6.8-2.6 1.9-5.2 2.8-7.9 2.8h-30.6c-2.7 0-4.6-.9-5.8-2.8-1.2-1.9-1.3-4.2-.3-6.8l11.2-30.7c1-2.7 2.7-5 5.3-6.8 2.6-1.9 5.2-2.8 7.9-2.8h30.6c2.7 0 4.6.9 5.9 2.8 1 1.9 1.1 4.1.1 6.8z"/><g fill="orange"><path d="M322.9.1h32c2.6 0 4.6.9 5.7 2.8 1.2 1.9 1.3 4.1.4 6.8l-14.7 40.4h-9.1l14.7-40.4c.1-.3 0-.5-.3-.5h-32l3.3-9.1zM368.7.1h32c2.6 0 4.6.9 5.7 2.8 1.2 1.9 1.3 4.1.4 6.8l-14.7 40.4H383l14.7-40.4c.1-.3 0-.5-.3-.5h-32l3.3-9.1z"/></g></svg>