<svg xmlns="http://www.w3.org/2000/svg" viewBox="0 0 953.4 984"><radialGradient id="a" cx="-14599.4" cy="9307.31" r="450.88" fx="-14628.16" fy="9307.31" gradientTransform="matrix(.762 .034 .05 -1.12 11567.57 11166.77)" gradientUnits="userSpaceOnUse"><stop offset=".04" stop-color="#d7d7d7"/><stop offset=".12" stop-color="#cfcfcf"/><stop offset=".25" stop-color="#bdbdbd"/><stop offset=".43" stop-color="#a0a0a0"/><stop offset=".77" stop-color="#686868"/><stop offset=".87" stop-color="#636363"/><stop offset=".95" stop-color="#606060"/><stop offset="1" stop-color="#5e5e5e"/></radialGradient><path fill="url(#a)" d="M770.3 91.6c-23.9 27.9-35.1 90.6-10.8 154.3s61.5 49.8 84.7 114.7c30.6 85.6 16.4 200.6 16.4 200.6s36.8 106.6 62.5-6.6c56.7-212.9-152.8-410.7-152.8-463z"/><radialGradient id="b" cx="-7525.36" cy="8885.85" r="791.23" gradientTransform="matrix(1.225 0 0 -1.225 9881.69 11078.3)" gradientUnits="userSpaceOnUse"><stop offset="0" stop-color="#909090"/><stop offset=".22" stop-color="#696969"/><stop offset=".26" stop-color="#636363"/><stop offset=".33" stop-color="#525252"/><stop offset=".33" stop-color="#515151"/><stop offset=".44" stop-color="#404040"/><stop offset=".52" stop-color="#333"/><stop offset=".57" stop-color="#2f2f2f"/></radialGradient><path fill="url(#b)" d="M478.1 974.6c245.2 0 443.9-199.7 443.9-446s-198.7-446-443.7-446-443.6 199.7-443.6 446c-.5 246.5 198.4 446 443.4 446z"/><linearGradient id="c" gradientUnits="userSpaceOnUse" x1="540.65" y1="288.33" x2="349.21" y2="914.56" gradientTransform="matrix(1 0 0 -1 0 1017.53)"><stop offset="0" stop-color="#101010" stop-opacity=".4"/><stop offset=".48" stop-color="#1a1a1a" stop-opacity=".17"/><stop offset="1" stop-color="#202020" stop-opacity="0"/></linearGradient><path fill="url(#c)" d="M810.7 803.6c-9.6 6.8-19.7 12.8-30.1 18.2a695.5 695.5 0 0 0 38.3-63c9.5-10.5 18.1-20.6 25.2-31.7 3.4-5.4 7.3-12.1 11.4-19.8 24.9-44.9 52.4-117.6 53.2-192.2v-.1-5.5c.1-18.7-1.8-37.4-5.7-55.7l.6 4.3-.6-3.3c.4 2 .7 4 1 6 5.1 43.2 1.5 85.4-16.7 116.4-.3.5-.6.9-.9 1.3 9.4-47.2 12.6-99.4 2.1-151.6 0 0-4.2-25.4-35.4-102.4-18-44.4-49.8-80.7-78-107.2-24.7-30.5-47.1-51-59.5-64.1-25.8-27.2-36.6-47.6-41.1-60.9-3.9-1.9-53.1-49.8-57-51.6-21.5 33.4-89.2 137.7-57 235.1 14.6 44.2 51.5 90 90.1 115.7 1.7 1.9 23 25 33.1 77.2 10.4 53.8 5 95.9-16.5 158-25.3 54.5-90.1 108.4-150.7 113.9-129.7 11.8-177.1-65.1-177.1-65.1 46.3 18.5 97.6 14.7 128.7-4.6 31.4-19.4 50.4-33.8 65.8-28.1 15.2 5.7 27.3-10.8 16.4-27.8a78.56 78.56 0 0 0-79.4-34.6c-31.4 5.1-60.2 30-101.4 5.9-2.7-1.5-5.2-3.2-7.7-5.1-2.7-1.8 8.8 2.7 6.1.7-8-4.4-22.2-13.8-25.9-17.2-.6-.6 6.2 2.2 5.6 1.6-38.5-31.7-33.7-53.1-32.5-66.6 1-10.7 8-24.5 19.8-30.1 5.7 3.1 9.2 5.5 9.2 5.5s-2.4-5-3.7-7.6c.5-.2.9-.1 1.4-.3 4.7 2.3 15 8.1 20.4 11.7 7.1 5 9.3 9.4 9.3 9.4s1.9-1 .5-5.4c-.5-1.8-2.6-7.5-9.7-13.2h.4c4.2 2.4 8.2 5.1 11.9 8.2 2-7.2 5.5-14.7 4.7-28.1-.5-9.4-.3-11.9-1.9-15.5-1.5-3.1.8-4.3 3.4-1.1-.4-2.5-1.2-5-2.2-7.4v-.2c3.2-11.2 68.2-40.5 73-43.9 7.8-5.5 14.3-12.6 19.1-20.8 3.6-5.8 6.3-13.8 7-26.1.4-8.8-3.8-14.7-69.5-21.6-18-1.8-28.5-14.8-34.5-26.8-1.1-2.6-2.2-4.9-3.3-7.3-1.1-2.7-1.9-5.6-2.6-8.4 10.7-30.9 28.8-57 55.4-76.7 1.4-1.3-5.8.3-4.3-1 1.7-1.5 12.7-6 14.8-7 2.5-1.2-10.9-6.9-22.7-5.5-12.1 1.4-14.6 2.8-21.1 5.5 2.7-2.7 11.2-6.1 9.2-6.1-13 2-29.2 9.6-43 18.1 0-1.5.3-3 .8-4.3-6.4 2.7-22.3 13.8-26.9 23.1.2-1.8.3-3.6.3-5.4-4.9 4.1-9.3 8.7-13.2 13.8l-.2.2c-37.4-15.1-70.2-16-98.1-9.3-6.1-6.1-9.1-1.6-22.9-32.1-.9-1.8.7 1.8 0 0-2.3-5.9 1.4 7.9 0 0-23.3 18.4-53.9 39.2-68.6 53.9-.2.6 17.2-4.9 0 0-6 1.7-5.6 5.3-6.5 37.5-.2 2.4 0 5.2-.2 7.4-11.7 15-19.7 27.6-22.8 34.2-15.2 26.2-31.9 67-48.1 131.6 7.2-17.5 15.8-34.4 25.8-50.4C62 432.5 49 486.3 46.4 569.1c3.3-17.1 7.4-34 12.5-50.7-3.2 68.7 8.7 137.4 34.7 201.1 9.3 22.8 24.8 57.5 51 95.4C226.9 902 343.3 956 472.2 956c134.6 0 255.4-58.9 338.5-152.4z"/><radialGradient id="d" cx="-8280.39" cy="7461.98" r="266.89" gradientTransform="matrix(1.219 .123 .123 -1.219 10168.68 10750.1)" gradientUnits="userSpaceOnUse"><stop offset="0" stop-color="#d7d7d7"/><stop offset=".5" stop-color="#686868"/><stop offset="1" stop-color="#5e5e5e"/></radialGradient><path fill="url(#d)" d="M711.1 866.7c162.9-18.9 235-186.7 142.4-190-83.7-2.7-219.5 198.9-142.4 190z"/><radialGradient id="e" cx="-8304.54" cy="7717.9" r="445.68" gradientTransform="matrix(1.219 .123 .123 -1.219 10168.68 10750.1)" gradientUnits="userSpaceOnUse"><stop offset="0" stop-color="#d6d6d6"/><stop offset=".16" stop-color="#b5b5b5"/><stop offset=".32" stop-color="#979797"/><stop offset=".47" stop-color="#7f7f7f"/><stop offset=".62" stop-color="#6c6c6c"/><stop offset=".76" stop-color="#5e5e5e"/><stop offset=".89" stop-color="#565656"/><stop offset="1" stop-color="#535353"/></radialGradient><path fill="url(#e)" d="M865.2 642.4C977.3 577.2 948 436.3 948 436.3s-43.2 50.2-72.6 130.3c-29 79.4-77.6 115.2-10.2 75.8z"/><radialGradient id="f" cx="-8241.5" cy="7304.76" r="408.96" gradientTransform="matrix(1.219 .123 .123 -1.219 10168.68 10750.1)" gradientUnits="userSpaceOnUse"><stop offset="0" stop-color="#686868"/><stop offset=".5" stop-color="#5e5e5e"/><stop offset=".99" stop-color="#222"/></radialGradient><path fill="url(#f)" d="M509.5 950.1C665.7 1000 800 876.9 717.2 835.8c-75.2-37.1-281.9 90.7-207.7 114.3z"/><radialGradient id="g" cx="715.19" cy="623.49" r="782.18" fx="743.17" fy="609.66" gradientTransform="matrix(1 0 0 -1 0 1017.53)" gradientUnits="userSpaceOnUse"><stop offset=".16" stop-color="#d7d7d7"/><stop offset=".23" stop-color="#cfcfcf"/><stop offset=".36" stop-color="#bdbdbd"/><stop offset=".54" stop-color="#a0a0a0"/><stop offset=".76" stop-color="#686868"/><stop offset=".8" stop-color="#666"/><stop offset=".84" stop-color="#5e5e5e"/><stop offset=".89" stop-color="#515151"/><stop offset=".94" stop-color="#444"/></radialGradient><path fill="url(#g)" d="M876.8 702.2c3.8-5.4 8.9-22.5 13.5-30.2 27.6-44.5 27.8-80 27.8-80.8 16.7-83.2 15.1-117.2 4.9-180-8.3-50.6-44.3-123.1-75.6-158-32.2-36-9.5-24.2-40.7-50.5-27.3-30.3-53.8-60.3-68.3-72.4C634.2 43.1 636.6 24.6 638.6 21.4c-.3.4-.8.9-1.5 1.6-1.2-4.9-2.1-9.1-2.1-9.1s-57 57-69 152c-7.8 62 15.4 126.7 49 168 17.5 21.4 37.3 40.9 59 58 25.4 36.5 39.4 81.5 39.4 129.9 0 121.2-98.3 219.5-219.7 219.5-16.5 0-33-1.8-49.1-5.5-57.2-10.9-90.3-39.8-106.8-59.4-9.4-11.2-13.5-19.4-13.5-19.4 51.3 18.4 108 14.5 142.5-4.5 34.7-19.3 55.8-33.5 72.8-27.9 16.8 5.6 30.2-10.7 18.2-27.5-11.8-16.8-42.4-41-87.9-34.3-34.8 5.1-66.7 29.8-112.2 5.8-2.9-1.5-5.8-3.2-8.6-5-3-1.8 9.8 2.7 6.8.7-8.9-4.3-24.6-13.7-28.6-17.1-.7-.6 6.9 2.2 6.2 1.6-42.6-31.4-37.3-52.7-36-66 1.1-10.7 8.8-24.3 21.9-29.9 6.3 3.1 10.2 5.4 10.2 5.4s-2.7-4.9-4.1-7.5c.5-.2 1-.1 1.5-.3 5.2 2.2 16.6 8 22.6 11.6 7.8 4.9 10.3 9.4 10.3 9.4s2.1-1 .5-5.3c-.6-1.8-2.9-7.4-10.7-13.1h.5c4.6 2.3 9 5.1 13.1 8.2 2.2-7.1 6.1-14.6 5.3-27.9-.5-9.4-.3-11.8-2.1-15.4-1.6-3.1.9-4.3 3.8-1.1-.5-2.5-1.3-5-2.4-7.3v-.2c3.6-11.1 75.5-40.1 80.8-43.5 8.4-5.3 15.7-12.3 21.2-20.6 4-5.7 7-13.7 7.7-25.9.2-5.5-1.4-9.8-20.5-14-11.4-2.5-29.1-4.9-56.4-7.5-19.9-1.8-31.6-14.7-38.2-26.6-1.2-2.6-2.4-4.9-3.7-7.2-1.2-2.7-2.1-5.5-2.8-8.4 11.9-31.2 33.4-57.8 61.3-76.1 1.6-1.3-6.4.3-4.8-1 1.9-1.5 14.1-5.9 16.4-6.9 2.8-1.2-12-6.8-25.2-5.5-13.4 1.3-16.2 2.8-23.3 5.5 3-2.6 12.4-6.1 10.2-6.1-14.4 2-32.3 9.5-47.6 18 0-1.5.3-3 .9-4.3-7.1 2.7-24.6 13.7-29.7 22.9.2-1.8.3-3.6.3-5.4-5.4 4-10.3 8.6-14.6 13.7l-.3.2c-41.5-14.7-77.9-15.7-108.6-9-6.7-6.1-17.6-15.2-32.9-45.4-1-1.8-1.6 3.8-2.4 2-6-13.8-9.6-36.4-9-52 0 0-12.3 5.6-22.5 29.1-1.9 4.2-3.1 6.5-4.3 8.9-.6.7 1.3-7.7 1-7.2-1.8 3-6.4 7.2-8.4 12.6-1.4 4-3.3 6.3-4.6 11.3l-.3.5c-.1-1.5.4-6.1 0-5.1-4.8 9.7-8.9 19.6-12.3 29.8-5.5 18-11.9 42.6-12.9 74.6-.2 2.4 0 5.1-.2 7.3-13 14.8-21.9 27.4-25.2 33.9-16.8 26-35.3 66.4-53.3 130.5 8-17.5 17.5-34.2 28.5-50C17.3 416.3 2.9 469.6 0 551.8c3.6-17 8.3-33.8 13.9-50.2-2.6 54.8 3.8 122.7 38.4 199.4 20.6 45.1 67.9 136.6 183.6 208.1 0 0 39.4 29.3 107 51.3 5 1.8 10.1 3.6 15.2 5.3-1.6-.7-3.2-1.3-4.7-2.1 45 13.5 91.8 20.4 138.8 20.4 175.2.1 226.8-70.2 226.8-70.2s-.2.1-.5.4c2.5-2.3 4.9-4.7 7.1-7.3-27.6 26.1-90.7 27.8-114.3 25.9C651.5 921 678 911 729.5 891.3c6-2.2 12.2-4.8 18.5-7.6l2.1-.9c1.2-.6 2.5-1.1 3.7-1.7 25.1-11.8 48.7-26.6 70.3-44 51.7-41.3 62.9-81.6 68.8-108.1-.8 2.5-3.4 8.5-5.2 12.3-13.3 28.5-42.8 46-74.9 60.9 15.3-20 29.4-40.9 42.4-62.4 10.6-10.4 13.8-26.7 21.6-37.6z"/><radialGradient id="h" cx="656.34" cy="1016.24" r="923.62" gradientTransform="matrix(1 0 0 -1 0 1017.53)" gradientUnits="userSpaceOnUse"><stop offset=".28" stop-color="#d7d7d7"/><stop offset=".4" stop-color="#cfcfcf"/><stop offset=".63" stop-color="#bababa"/><stop offset=".86" stop-color="#a2a2a2"/><stop offset=".93" stop-color="#8b8b8b"/><stop offset=".99" stop-color="#7b7b7b"/></radialGradient><path fill="url(#h)" d="M813.9 801c21.1-23.2 40-49.8 54.3-80 36.9-77.6 94-206.6 49-341.3C881.8 273.2 833 215 771.1 158.1 670.6 65.8 642.5 24.5 642.5 0c0 0-116.1 129.4-65.7 264.4s153.5 130 221.7 270.9c80.3 165.7-64.9 346.6-185 397.2 7.4-1.6 267-60.4 280.6-208.9-.4 2.7-6.3 43.8-80.2 77.4z"/><linearGradient id="i" gradientUnits="userSpaceOnUse" x1="-8963.05" y1="7619.04" x2="-8678.68" y2="7691.52" gradientTransform="matrix(1.219 .123 .123 -1.219 10168.68 10750.1)"><stop offset="0" stop-color="#5e5e5e" stop-opacity=".5"/><stop offset=".47" stop-color="#686868" stop-opacity=".5"/><stop offset=".49" stop-color="#6b6b6b" stop-opacity=".51"/><stop offset=".68" stop-color="#979797" stop-opacity=".72"/><stop offset=".83" stop-color="#b7b7b7" stop-opacity=".87"/><stop offset=".94" stop-color="#cbcbcb" stop-opacity=".96"/><stop offset="1" stop-color="#d3d3d3"/></linearGradient><path fill="url(#i)" d="M477.6 319.4c.4-8.8-4.2-14.7-76.7-21.5-29.8-2.8-41.3-30.3-44.7-41.9-10.6 27.6-15 56.5-12.6 91.5 1.6 22.9 17 47.5 24.4 62 0 0 1.6-2.1 2.4-2.9 13.9-14.4 71.9-36.4 77.4-39.5 5.9-3.9 28.8-20.7 29.8-47.7z"/><linearGradient id="j" gradientUnits="userSpaceOnUse" x1="181.41" y1="2078.66" x2="126.83" y2="2218.51" gradientTransform="matrix(.995 .1 .1 -.995 -244.65 2309.98)"><stop offset="0" stop-color="#3e3e3e" stop-opacity=".6"/><stop offset="1" stop-color="#5e5e5e" stop-opacity="0"/></linearGradient><path fill="url(#j)" d="M158.3 156.5c-1-1.8-1.6 3.8-2.4 2-6-13.8-9.6-36.2-8.7-52 0 0-12.3 5.6-22.5 29.1-1.9 4.2-3.1 6.5-4.3 8.9-.6.7 1.3-7.7 1-7.2-1.8 3-6.4 7.2-8.3 12.4-1.7 4.2-3.3 6.5-4.6 11.8-.4 1.4.4-6.3.1-5.4C84.7 201.7 80.2 271 82.7 268c50.5-53.9 108.3-66.7 108.3-66.7-6.1-4.5-19.5-17.6-32.7-44.8z"/><linearGradient id="k" gradientUnits="userSpaceOnUse" x1="-42.03" y1="277.75" x2="52.08" y2="170.86" gradientTransform="matrix(.995 .1 .1 -.995 234.48 749.56)"><stop offset=".01" stop-color="#3e3e3e" stop-opacity=".5"/><stop offset=".48" stop-color="#686868" stop-opacity=".5"/><stop offset="1" stop-color="#686868" stop-opacity="0"/></linearGradient><path fill="url(#k)" d="M349.8 720.1c-69.7-29.8-149-71.8-146-167.1C207.9 427.3 321 452.2 321 452.2c-4.3 1-15.7 9.2-19.7 17.8-4.3 10.8-12.1 35.3 11.6 60.9 37.1 40.2-76.2 95.4 98.7 199.6 4.3 2.4-41.1-1.5-61.8-10.4z"/><linearGradient id="l" gradientUnits="userSpaceOnUse" x1="136" y1="92" x2="136.06" y2="166.78" gradientTransform="matrix(.995 .1 .1 -.995 234.48 749.56)"><stop offset="0" stop-color="#5e5e5e"/><stop offset=".08" stop-color="#5e5e5e" stop-opacity=".81"/><stop offset=".21" stop-color="#5e5e5e" stop-opacity=".56"/><stop offset=".33" stop-color="#5e5e5e" stop-opacity=".36"/><stop offset=".45" stop-color="#5e5e5e" stop-opacity=".2"/><stop offset=".56" stop-color="#5e5e5e" stop-opacity=".09"/><stop offset=".67" stop-color="#5e5e5e" stop-opacity=".02"/><stop offset=".77" stop-color="#5e5e5e" stop-opacity="0"/></linearGradient><path fill="url(#l)" d="M325.1 657.5c49.4 17.2 107 14.2 141.5-4.9 23.1-12.9 52.7-33.4 70.9-28.4-15.8-6.2-27.7-9.2-42.1-9.9-2.4 0-5.4-.1-8-.3-5.3 0-10.5.3-15.8.9-8.9.8-18.8 6.4-27.7 5.5-.5 0 8.7-3.8 8-3.6-4.8 1-9.9 1.2-15.4 1.9-3.5.4-6.4.8-9.9 1-103 8.7-190-55.8-190-55.8-7.5 25 33.1 74.3 88.5 93.6z"/><linearGradient id="m" gradientUnits="userSpaceOnUse" x1="620.53" y1="981.41" x2="926.19" y2="297.91" gradientTransform="matrix(1 0 0 -1 0 1017.53)"><stop offset="0" stop-color="#e3e3e3"/><stop offset=".27" stop-color="#e1e1e1"/><stop offset=".45" stop-color="#dcdcdc"/><stop offset=".61" stop-color="#d2d2d2"/><stop offset=".76" stop-color="#c3c3c3"/><stop offset=".89" stop-color="#b2b2b2"/><stop offset=".9" stop-color="#b0b0b0"/><stop offset=".95" stop-color="#ababab"/><stop offset="1" stop-color="#a2a2a2"/></linearGradient><path fill="url(#m)" d="M813.7 801.6c104.2-102.3 156.9-226.6 134.6-366 0 0 8.9 71.5-24.8 144.6 16.2-71.4 18.1-160.1-25-252C841 205.6 746.5 141 710.4 114.1c-54.7-40.8-77.4-82.3-77.8-90.9-16.3 33.5-65.8 148.2-5.3 247 56.6 92.6 145.9 120 208.3 204.9 115.1 156.6-21.9 326.5-21.9 326.5z"/><linearGradient id="n" gradientUnits="userSpaceOnUse" x1="680.89" y1="588.32" x2="536.1" y2="199.57" gradientTransform="matrix(1 0 0 -1 0 1017.53)"><stop offset="0" stop-color="#a0a0a0"/><stop offset=".04" stop-color="#a0a0a0" stop-opacity=".86"/><stop offset=".08" stop-color="#a0a0a0" stop-opacity=".73"/><stop offset=".13" stop-color="#a0a0a0" stop-opacity=".63"/><stop offset=".18" stop-color="#a0a0a0" stop-opacity=".56"/><stop offset=".23" stop-color="#a0a0a0" stop-opacity=".51"/><stop offset=".28" stop-color="#a0a0a0" stop-opacity=".5"/><stop offset=".39" stop-color="#a0a0a0" stop-opacity=".48"/><stop offset=".52" stop-color="#a0a0a0" stop-opacity=".42"/><stop offset=".68" stop-color="#a0a0a0" stop-opacity=".31"/><stop offset=".84" stop-color="#a0a0a0" stop-opacity=".17"/><stop offset="1" stop-color="#a0a0a0" stop-opacity="0"/></linearGradient><path fill="url(#n)" d="M798.8 535.6C762.4 460.4 717 427.5 674 392c5 7 6.2 9.5 9 14 37.8 40.3 93.6 138.7 53.1 262.1-76.2 232.4-381.1 123-413.1 92.2 12.9 134.5 238 198.8 384.6 111.6C791 793 858.5 658.8 798.8 535.6z"/></svg>
