<?xml version="1.0" encoding="utf-8"?>
<!-- Generator: Adobe Illustrator 22.1.0, SVG Export Plug-In . SVG Version: 6.00 Build 0)  -->
<svg version="1.1" id="Ebene_1" xmlns="http://www.w3.org/2000/svg" xmlns:xlink="http://www.w3.org/1999/xlink" x="0px" y="0px"
	 viewBox="0 0 83.9 150.2" enable-background="new 0 0 83.9 150.2" xml:space="preserve">
<g>
	<path fill="#00AE2F" stroke="#000000" stroke-width="0.25" stroke-miterlimit="10" d="M79.6,87.5c1.7,0,3.1-1.4,3.1-3.1V59
		c-0.1-1.8-1.5-3-3.1-3.1H56v-15C56,33.6,57.8,30,67,30h13.6c1.7,0,3.1-1.4,3.1-3.1V3.2c0-1.8-1.4-3.1-3.1-3.1H60.5
		c-22.5,0-37.1,15-37.1,38.1v17.5H3.2c-1.8,0-3.1,1.4-3.1,3.1v25.4c0,1.8,1.4,3.1,3.1,3.1h20.1v62.8H56V87.5H79.6z"/>
</g>
</svg>
