<svg xmlns="http://www.w3.org/2000/svg" viewBox="0 0 153.6 150"><path fill="currentColor" d="M143.2 38.2c-6.9-11.8-16.2-21-27.9-27.9C103.5 3.4 90.7 0 76.7 0 62.8 0 50 3.4 38.2 10.3s-21 16.2-27.9 27.9C3.4 50 0 62.7 0 76.7c0 16.7 4.9 31.8 14.7 45.2s22.3 22.6 37.8 27.8c1.8.4 3.1.1 4-.6.9-.8 1.3-1.8 1.3-3v-5.5-8.8l-2.3.4c-1.4.3-3.4.4-5.6.4-2.2 0-4.5-.3-6.9-.6-2.3-.4-4.7-1.4-6.8-3-2.1-1.6-3.5-3.6-4.4-6.1l-1-2.3c-.6-1.6-1.7-3.2-3.1-5.1-1.4-1.8-2.9-3.1-4.3-3.8l-.6-.5c-.5-.4-.9-.8-1.3-1.2-.4-.5-.6-.9-.9-1.4s0-.9.5-1.2c.5-.3 1.6-.4 2.9-.4l1.9.3c1.3.3 3 1 4.9 2.3s3.6 3.1 4.8 5.2c1.6 2.7 3.4 4.8 5.6 6.2 2.2 1.4 4.3 2.2 6.5 2.2s4.2-.1 5.7-.5c1.6-.4 3.1-.8 4.5-1.6.6-4.4 2.2-7.9 4.9-10.3-3.8-.4-7.3-1-10.3-1.8s-6.1-2.1-9.3-3.9-6-4-8-6.8c-2.1-2.7-3.9-6.1-5.2-10.5-1.4-4.3-2.1-9.3-2.1-14.9 0-8 2.6-14.9 7.9-20.6-2.5-6.1-2.2-12.9.6-20.4 1.9-.6 4.8-.1 8.6 1.3 3.8 1.6 6.6 2.7 8.3 3.9 1.8 1 3.2 1.9 4.3 2.7 6.2-1.7 12.6-2.6 19.2-2.6s13 .9 19.2 2.6l3.8-2.3c2.6-1.6 5.7-3.1 9.2-4.4 3.5-1.3 6.2-1.7 8-1 3 7.5 3.2 14.3.8 20.4 5.3 5.7 7.9 12.5 7.9 20.6 0 5.7-.6 10.6-2.1 15.1-1.4 4.4-3.1 7.9-5.3 10.5-2.2 2.6-4.8 4.8-8 6.6-3.2 1.8-6.4 3.1-9.3 3.9s-6.5 1.4-10.3 1.8c3.5 3 5.2 7.8 5.2 14.2v21c0 1.2.4 2.2 1.3 3 .8.8 2.2 1 3.9.6 15.4-5.2 28-14.4 37.8-27.8 9.7-13.4 14.7-28.4 14.7-45.2-.1-14.1-3.5-26.9-10.4-38.6z"/></svg>
