<svg xmlns="http://www.w3.org/2000/svg" viewBox="0 0 146.1 150"><path fill="currentColor" d="M102.1 150H44c-24.3 0-44-19.7-44-44V44C.1 19.7 19.9 0 44 0h58.1c24.3 0 44 19.7 44 44v62c0 24.3-19.8 44-44 44zM44 15.9c-15.4 0-28.1 12.6-28.1 28.2V106c0 15.5 12.6 28.1 28.1 28.1h58.1c15.5 0 28.1-12.6 28.1-28.1V44c0-15.5-12.6-28.1-28.1-28.1H44z"/><path fill="currentColor" d="M73 116.4c-23 0-41.6-18.7-41.6-41.6 0-11.3 4.6-22.2 12.7-30.1C52 37 62.4 32.9 73.3 33.2c25.2.7 41.9 17.5 41.4 41.8-.5 23.1-18.7 41.4-41.7 41.4zm-.7-63.9c-5.4 0-10.6 2.1-14.6 6-4.3 4.2-6.8 10.1-6.8 16.2C50.8 87 60.8 97 73 97s22-9.9 22.3-22.4c.2-8-2.6-21.5-22.5-22.1h-.5z"/><circle fill="currentColor" cx="112.4" cy="35.2" r="8.9"/></svg>
