<?xml version="1.0" encoding="utf-8"?>
<!-- Generator: Adobe Illustrator 22.1.0, SVG Export Plug-In . SVG Version: 6.00 Build 0)  -->
<svg version="1.1" id="Ebene_1" xmlns="http://www.w3.org/2000/svg" xmlns:xlink="http://www.w3.org/1999/xlink" x="0px" y="0px"
	 viewBox="0 0 146.1 150" enable-background="new 0 0 146.1 150" xml:space="preserve">
<g id="Instagram">
	<g>
		<path fill="#00AE2F" d="M102.1,150H44c-24.3,0-44-19.7-44-44V44C0.1,19.7,19.9,0,44,0h58.1c24.3,0,44,19.7,44,44v62
			C146.1,130.3,126.3,150,102.1,150z M44,15.9c-15.4,0-28.1,12.6-28.1,28.2V106c0,15.5,12.6,28.1,28.1,28.1h58.1
			c15.5,0,28.1-12.6,28.1-28.1V44c0-15.5-12.6-28.1-28.1-28.1H44z"/>
	</g>
	<g>
		<path fill="#00AE2F" d="M73,116.4c-23,0-41.6-18.7-41.6-41.6c0-11.3,4.6-22.2,12.7-30.1C52,37,62.4,32.9,73.3,33.2
			c25.2,0.7,41.9,17.5,41.4,41.8C114.2,98.1,96,116.4,73,116.4z M72.3,52.5c-5.4,0-10.6,2.1-14.6,6c-4.3,4.2-6.8,10.1-6.8,16.2
			C50.8,87,60.8,97,73,97s22-9.9,22.3-22.4l0,0c0.2-8-2.6-21.5-22.5-22.1C72.6,52.5,72.4,52.5,72.3,52.5z"/>
	</g>
	<circle fill="#00AE2F" cx="112.4" cy="35.2" r="8.9"/>
</g>
</svg>
