<svg xmlns="http://www.w3.org/2000/svg" viewBox="0 0 32 32">
  <path d="M16.2 31H2.333A1.334 1.334 0 011 29.667V2.333C1 1.597 1.597 1 2.333 1h27.334C30.403 1 31 1.597 31 2.333v27.334c0 .736-.597 1.333-1.333 1.333h-8.134V19.667h3.414a.668.668 0 00.666-.587l.507-4a.666.666 0 00-.667-.747h-3.92V12.92a2.254 2.254 0 012.254-2.253H26.2a.667.667 0 00.667-.667V6a.667.667 0 00-.667-.667h-2.413A7.588 7.588 0 0016.2 12.92h0v1.413h-3.333A.667.667 0 0012.2 15v4c0 .368.299.667.667.667H16.2V31z" stroke="currentcolor" fill="none" stroke-width="1.5" stroke-linecap="round" stroke-linejoin="round"/>
</svg>