<svg xmlns="http://www.w3.org/2000/svg" viewBox="0 0 32 32">
  <path d="M19.213 29.8a.667.667 0 00.854.64c7.958-2.297 12.549-10.612 10.252-18.572C28.02 3.909 19.705-.682 11.747 1.618S-.803 12.228 1.495 20.188a15 15 0 0010.252 10.252.667.667 0 00.853-.64v-3.134A3.747 3.747 0 018 24.373a8.098 8.098 0 00-1.813-3.04c3.8.92 3.866 3.387 6.453 2.227a5.339 5.339 0 01.84-2.427c-2.933-.333-6.027-.8-6.027-5.866a5.121 5.121 0 011.334-3.547 4.75 4.75 0 01.133-3.493s1.107-.36 3.64 1.333a12.517 12.517 0 016.667 0c2.52-1.707 3.626-1.333 3.626-1.333a4.75 4.75 0 01.134 3.493 5.11 5.11 0 011.333 3.547c0 5.08-3.093 5.533-6.04 5.853.63.91.95 2 .907 3.107l.026 5.573z" stroke="currentColor" fill="none" stroke-width="1.5" stroke-linecap="round" stroke-linejoin="round"/>
</svg>