<svg viewBox="0 0 32 32" xmlns="http://www.w3.org/2000/svg">
  <path d="M16.667 31.333H2A1.333 1.333 0 01.667 30V2C.667 1.264 1.264.667 2 .667h28c.736 0 1.333.597 1.333 1.333v28c0 .736-.597 1.333-1.333 1.333h-8v-12h3.412a.667.667 0 00.667-.584l.5-4a.667.667 0 00-.667-.749H22v-1.753A2.25 2.25 0 0124.248 10h2.419a.667.667 0 00.666-.667v-4a.667.667 0 00-.666-.666h-2.419a7.59 7.59 0 00-7.581 7.58V14h-3.334a.667.667 0 00-.666.667v4c0 .368.298.666.666.666h3.334v12z" stroke="currentColor" fill="none" fill-rule="evenodd" stroke-linecap="round" stroke-linejoin="round"/>
</svg>