<svg viewBox="0 0 32 32" xmlns="http://www.w3.org/2000/svg">
  <path d="M16 .667a15.333 15.333 0 00-4.847 29.885c.766.133 1.008-.316 1.008-.721 0-.367.008-1.383 0-2.667-4.266.925-5.148-2.02-5.148-2.02a4.057 4.057 0 00-1.701-2.243c-1.392-.952.104-.933.104-.933a3.219 3.219 0 012.35 1.579 3.264 3.264 0 004.46 1.274c.071-.775.417-1.5.974-2.042-3.404-.39-6.984-1.704-6.984-7.582a5.93 5.93 0 011.58-4.114 5.501 5.501 0 01.15-4.058S9.234 6.613 12.16 8.6a14.51 14.51 0 017.68 0c2.934-1.984 4.212-1.574 4.212-1.574a5.508 5.508 0 01.152 4.058 5.923 5.923 0 011.578 4.117c0 5.893-3.586 7.188-7.002 7.565a3.636 3.636 0 011.05 2.827v4.245c0 .41.248.863 1.026.715A15.333 15.333 0 0016 .667z" stroke="currentColor" fill="none" fill-rule="evenodd" stroke-linecap="round" stroke-linejoin="round"/>
</svg>