<?xml version="1.0" encoding="utf-8"?><svg xmlns="http://www.w3.org/2000/svg" xmlns:xlink="http://www.w3.org/1999/xlink" version="1.0" id="neues_Logo" x="0px" y="0px" viewBox="0 0 1000 1000"><g id="Hintergrund_Logo_innen"><path fill="#FFFFFF" d="M500,75c57.4,0,113.1,11.2,165.4,33.4c50.6,21.4,96.1,52.1,135.1,91.1c39.1,39.1,69.7,84.5,91.1,135.1 c22.1,52.3,33.4,108,33.4,165.4s-11.2,113.1-33.4,165.4c-21.4,50.6-52.1,96.1-91.1,135.1c-39.1,39.1-84.5,69.7-135.1,91.1 C613.1,913.8,557.4,925,500,925s-113.1-11.2-165.4-33.4c-50.6-21.4-96.1-52.1-135.1-91.1c-39.1-39.1-69.7-84.5-91.1-135.1 C86.2,613.1,75,557.4,75,500s11.2-113.1,33.4-165.4c21.4-50.6,52.1-96.1,91.1-135.1c39.1-39.1,84.5-69.7,135.1-91.1 C386.9,86.2,442.6,75,500,75"/></g><g id="Embleme"><g id="Bayerische_Rauten"><path fill="#5473B7" d="M317.6,734.6l-46.9,16.9l-32.7,35.8l-2.3,13c13.6,12,27.9,23,42.9,33l22.7-8.2L317.6,734.6z"/><path fill="#5473B7" d="M379.5,881.5c16.3,5.1,32.8,9.2,49.6,12.2l5.8-32.1L379.5,881.5z"/><polygon fill="#5473B7" points="659.6,780.8 675.6,692 675.9,690.3 674.5,690.8 601,717.3 584.7,807.7 "/><path fill="#5473B7" d="M362.3,875.7l14-77.6L301.3,825l-3.6,20.1c15,8.8,30.5,16.6,46.6,23.4 C350.3,871.1,356.2,873.5,362.3,875.7z"/><path fill="#5473B7" d="M734.5,753.8l-1.9,0.7l-73,26.2l-16.3,90.5l31.5-11.3c15.7-7.6,30.8-16.2,45.3-25.8l14-77.9L734.5,753.8z"/><polygon fill="#5473B7" points="601,717.3 617.1,627.9 617.3,626.8 616.4,627.1 542.4,653.7 526.1,744.2 "/><polygon fill="#5473B7" points="542.4,653.7 558.6,563.7 558.7,563.3 558.3,563.4 483.7,590.2 467.4,680.7 "/><polygon fill="#5473B7" points="467.4,680.7 392.5,707.6 376.2,798.1 451.1,771.2 "/><path fill="#5473B7" d="M509.8,834.7L498,900c0.7,0,1.3,0,2,0c23.4,0,46.5-2,69.1-5.9l15.6-86.4L509.8,834.7z"/><polygon fill="#5473B7" points="500,500 412.7,595.8 408.8,617.2 483.7,590.2 "/><polygon fill="#5473B7" points="408.8,617.2 385.5,625.5 325.4,691.5 317.6,734.6 392.5,707.6 "/><polygon fill="#5473B7" points="451.1,771.2 434.8,861.6 509.8,834.7 526.1,744.2 "/></g><path id="Hintergrund_Pockinger_Pferd" fill="#4B8331" d="M891.6,665.4c22.1-52.3,33.4-108,33.4-165.4 c0-57.4-11.2-113.1-33.4-165.4c-21.4-50.6-52.1-96.1-91.1-135.1c-39.1-39.1-84.5-69.7-135.1-91.1C613.1,86.2,557.4,75,500,75l0,425 l286.3,314.1c4.8-4.4,9.5-8.9,14.2-13.5C839.6,761.5,870.2,716,891.6,665.4z"/><path id="Passauer_Löwe" fill="#E42720" d="M131.3,408.9c3.3-7.4,1.6-11.9-3.5-16.9c-0.7-4.6,2.7-3,6.1-2.6 c1.6-3.4-0.7-4.4-2.6-6.4c0-0.7,0-1.2-0.3-1.8c9.8-4.1,7.4-8.6,4.9-17.8c5.3-0.7,6.6,4.1,11.3,2.3c4.9-6.1,3-13.4,0.1-19 c0-1,0-1.8,0-2.6c9.7,0,12.3,4,16.5,12.6c3.1,3,4.6-1.1,5.2-2.7c6.1-19.3-6-27.7-6.4-30.2c18.6,1,18.8,14.2,21.6,10.5 c5.2-10.1-7.8-17.1-9.3-25.5c7.1-1.5,10.5,2.5,15.4,6c21.2,21.2,12.4,45.3-8.9,60.4c-5.7,4.8-14.3,7.2-18.4,15.6 c-3.4,9,3.5,15.7,12.3,13.8c8.6-11.3,44.4-31.1,87.3-37c2.2-0.5,1.6-2.7,1.1-4.1c-1.9-5.1-25.8,11.5-35.5-8.1 c15-3.1,16.4-3.3,22.7-8.9c2.5-2.2,2-4.6-1.1-4.6c-13.4,0.7-18,0.1-24.6-9.8c0-1,0-1.9-0.1-2.7c5.1-0.4,18,0,19.5-6.6 c1.1-5.5-14.5-0.5-16.4-15.4c2.6,0.7,10.1,1.6,12.7,0.6c8.2-3.8-0.1-14.2-1.1-16.1c-0.4-4.2-1.1-7.7-3-12.6 c-4.5-4.4-9.8-10.1-10.4-17.2c0-2.7,0.3-4.1,4-3.1c6.8,2.9,18,6.3,25,6.3c4.9-3.8,11.9-6,17.1-7.4c2.6-3.5,3-5.1,3.6-7.9 c0.3-1.5,0.5-3,0.7-4.5c2.9,0,3.5,1.6,4.9,3.1c12.6,30.9,33.6,9.8,46.7,12c5.3,0.6,6.6-0.7,9.6,3.3c0.3,4,0.5,7.9,0.8,12 c1.9,5.3,1.8,9.8,0.1,15.2c-0.4,1-1.1,2.2-1.6,3.1c-0.7,0-1.2,0-2,0c-2.9-7.4-7.7-6-10.2,0c-1-0.1-2,0-3.1,0 c-1.8-2.2-0.7-3.7-4.5-3.7c-2.5-0.3-19.4,6.4-18.7,10.5c0.3,1.8,8.2-0.5,11.5-1.2c11.5-2.2,21.7-1.8,31.5,0 c6.1,1.1,5.5-3.5,4.2-7.4c0.8-2.2,3.1-1.6,3.7-1.1c9.8,10-1.4,15.4-10.8,15.7c-5.6-4.4-29.2-4.5-36.3-1.1c-1.1,0.5-0.3,2.3,1.5,3.1 c2,1.1,12.7,3.7,22.1-0.3c5.6-3.7,5.1-1.9,8.3,3.3c1.9,3.1-0.4,3.8-4.4,6c-4.1,1.5-10.4,2.9-15.8,2.9c-4.6,0.3-13.1-5.6-14.3-0.4 c-0.8,4.4,2.9,4.9,5.3,5.3c10,1.8,18.2,1.5,25.3,8.6c18.8,28.4,37.3-13.5,41-30.5c0-5.9-1.9-5.9-7-8.6c-2-4.1,4.1-18.4,9.4-17.3 c1.5,2.2,5.1,7.2,7.5,7.2c4.6-5.5,6.1-5.3,11.1-5.7c1.9-1.1,3.4-2.7,5.7-2.2c1.9,2.9,3.7,5.9,5.5,8.7c0,0.5,0,1.1-0.1,1.6 c-1.4,4.6-3.5,6.3-1.1,10.5c3.5,0,4.8-1.2,6.6-1.9c1.4-0.1,2.7-0.3,4.2-0.3c2.5,1.2,3.8,3.8,5.6,6.4c1.5,0,3,0,4.4,0 c0.1,0.4,0.3,1,0.4,1.5c-1.8,3.3-3.3,5.1-6.1,7.5c-0.8,1.1-1.1,2.5-3.5,3.8c-1.2,0-2.6,0-4,0.1c-2.2-1.4-3.5-1.8-6.8-1.8 c-2.5,1.1-4.9,2.3-7.5,3.5c-0.8,2,8.6,9,10.1,10.1c-0.3,1.4,0,1.9-1.5,3.8c-4.5,3.3-9.2,4.4-16.1,5.2c0.8,7.2,1.2,11.9,3.4,18.7 c2,2.2,4,4.4,5.9,6.6c0.1,0.3,0.3,1-0.1,2c-2.2,0.1-5.9-1.2-9.1-2.2c-1.9-1.9-5.5-6.8-8.2-6.1c0,2.2,0.4,3.4,0.7,5.5 c1.8,4.2,6.1,8.5,9.8,11.5c2.7,1.2,5.3,2.5,7.9,3.8c0.1,0.5,0.1,1.2,0.1,1.8c-6,3.5-15.3-1.6-21.3-4.9c-0.6-0.1-1.1-0.1-1.6-0.1 c1.6,3.3,4.9,8.6,7.8,11.1c0,0.4,0,1,0,1.5c-2.9-0.7-6-1.4-9-2c-1.1,0-1.1,0.3-1.5,1.1c1.4,4.1,2.7,6.3,1.1,11.2 c-1.2,0-2.7,0.1-4.2,0.3c0.4,9.1,40.4,25.9,50.1,26.1c5.2-0.5,10.6-4.9,8.2-10.6c0.4-6,1.1-9.8,2.6-14.5c2.6,0.5,2,0.3,3.7,2.5 c4,1.2,5.6,0,8.1,3.3c4.6,2.3,5.9-1.9,7.6-3.1c4.1-1.2,5.5,0.5,8.1,2.5c5.7,1.4,9.2,0,10.1,6.1c-6.3,0-6.1,4.5-9,9 c-4,1.5-9,2.2-8.2,6.6c2,3,7.5,3.7,10,3.7c2.3,0.5,4.2,0.7,5.2,2.6c1,2.5,1.8,4.9,2.5,7.4c2.2,1.9,2.6,2.5,2.6,5.9 c-1.8,0.1-3.7,0.3-5.7,0.4c-2.7,2.9-1.2,4.5-7.2,4.5c-2.3-1.9-4.6-3.8-7.1-5.6c-3.3-1.1-8.7,1-7.1,7c3,3.7,7.8,5.9,8.2,10.9 c-0.4,0.7-1.5,2.7-1.9,5.5c1.4,1.8,3.5,3.3,2,6.1c-2.2,0.3-5.7-0.3-8.9-1.6c-3-0.4-6.3-0.7-9.4-0.9c-8.5-2.1,0.8-8.2-3.7-11.5 c-2.9-5.7-1.5-8.1-8.2-8.1c-5.9,1.2-13.1,0-20.1,1c-7.5,2.5-9.7,11.6-15.2,12.4c-4.5,0.8-6.3,0.7-5.9-3.7c2.3-4.2,8.5-14.9,5.6-18 c-2.9-1-7.8,3.5-10.4,7.1c-4,3.7-9,6.7-16.3,8.5c-3.5,0.9-7.6,0.4-4.4-2.5l3.7-4c3.4-3.9,5.9-7.8,7.2-12 c-1.9-7.2-29.6,23.8-30.4,7.1c5.1-3.7,8.9-7.4,10.5-13.7c-6.1-1.4-9-2.6-14.6-5.5c-6.8-1.1-21.4,9.7-32.1,9.7 c-13.2-1.8-24.7-7.1-38.4-7.1c-6.3,2.3-4.5,7.2-0.9,11.9c6.7,6,20.2-1,32.5,3.4c10,4,27.6,7.7,28.3,30.6c-0.3,3.8-1.1,6.8-3.3,11.1 c-4.5,4.4-7.1,9.3-1.8,12.7c7.5,4.5,35.2,21.2,45.7,18.6c6.1-4.6,6-8.9,7.2-15c1.4-10,19.5-7.4,23.5-7c3,0.4,7.4,4,5.5,7.4 c-0.8,1.1-4.9,0.8-5.9,0.3c1.1,7.3,0.4,9.6-3.4,11.7l-4.8,2.2v3.1c0,1.5,2.9,3.1,5.5,3.8c9.7,1.2,9.8,2.2,12.3,9.4 c1.4,3.7,4.6,5.3,5.7,8.1c0.8,2,2,5.1-0.3,7.9c-0.7-0.1-1.1-0.1-2.3-0.1c-2.3-3.3-1.9-4-6.4-4c-4.4,4.9-7.2,5.2-13.7,3.8 c-1.4-1.5-8.6-8.6-8.6-2.9c1.4,1.8,1.9,3.3,1.9,5.9c-0.9,4.5-3.8,10-6.6,15.2c-0.7-0.1-1.5-0.1-2.3-0.1c0-1.4-1.6-3.5-2.5-4.6 c-2.5-1.9-5.9-0.6-9.8-0.6c-3.4-2.5-6.1-18.7-10.6-14.1c-0.7,4.6-1,6.6-3.4,10.7c-1.4,0.7-3.4,1-5.6,3.3c-0.3,1.2,0.1,1.8-1.5,4.1 c-0.7,0-1.4,0-2,0.1c-2.9-3.8-3.1-8.3-7.4-10.4c-1.6-2.7-1.1-5.3-1.1-8.5c2.5-3.4,3.7-5.1,4.8-7.2c-1.2-2.2-6,0.4-8.2,2.5 c-3.8,7.8-15.6,8.5-23.1,7.7c0.1-1,0.3-1.9,0.3-3c1.6-0.3,13.4-6.7,11.3-12c-3.3,0.7-8.1,4.2-12.4,6.7c-4.2,0.8-12.3,1.6-16-2 c0-0.8-0.1-1.5-0.4-2.2c1.8-2.7,12.4-1.9,9.1-7.2c-6.1-0.8-7.5-1.5-13-4.2c0.1-0.7,0.1-1.4,0.1-2c3-1,6-1.8,9-2.6 c5.7-5.7-4.4-7.2-7.2-8.1c-4.2-2.1-4-13-4.1-16.1c-5.2-10.2-16.9-11.9-27-12.6c-12.1,7.4-21,13.2-34.4,17.3c-0.1,1.5-0.3,3-0.5,4.5 c6,7.8,19.9,25,30,23.1c8.6-1.4-0.1-13.7,12.4-13.9c2.5-1.5,4.5-2.9,6.7-2.9c0,2.2-0.8,5.6-0.1,8.9c11.1,10.8-5.6,16.3,3.1,19.7 c4,0.7,7.9,0.4,10.1,4c0.5,1.8,0.6,3.8,0.6,5.8c0,2-0.2,3.9-0.2,5.9c2.1,5.1,5.4,7,2.2,11.8l-1.3,1.7c-2.6-1.9-4.6-4.5-8.1-4.1 c-10.2,5.2-11.9,3.1-16.9-6.3c-0.7,0.1-1.4,0.3-2.2,0.4c-1.4,2.1-3.7,6.3-8.2,6.3c-2.5-0.5-4.1-1.2-7.4-1.2 c-2.6,1.1-5.2,2.6-9.4,3.1c5.2-15.4-4.4-8.9-4.8-15.7c0-2.5,3-5.3,1.5-6.8c-0.7,0-1.5,0-2.5,0c-3.5,4.2-6.6,6.6-11.6,9.2 c-0.7,1.5-1.5,3-2.2,4.5c-0.7,0-1.4,0-2.2,0.1c-2.5-4.9-3.7-9.8-7.4-14.3c-2.7-13.9-15.8-1.8-15.8-11.9c3.7-2.5,8.7-1.5,4.1-4.8 c-8.5-1.2-10.9-2.6-12.2-10.5c1.5-0.7,2.9-1.4,4.2-2c0-0.6,0-1,0-1.4c-6.4-2.3-16.1-5.9-16.1-14.5c3.5,0.3,8.7,2.2,10.8,1.4 c3.8-7.6-1.5-10.5,9.7-15.4c10.8-8.3-5.6-21,0.8-30.2c-6.7,0.6-24.7,2.7-24.7-8.9c4.5,0,9,1.5,12,0.3c0-0.5-0.1-1.1-0.3-1.5 c-6.1-2.9-13.7-0.9-14.5-9.6c1.8-1.4,3.5,0.1,4.8,0.8c4.5,2.6,16.4-3.1,10.7-6.7c-3.8-2.3-25-2-29.4,1.8c-2.3,2.5-3,4.8-5.9,4.4 c-3.1-2.6,1.8-11.2,1.8-17.1c-3.7-3.1-5.9-2.6-10.9-2.5C124.2,412.1,128.9,410.2,131.3,408.9z"/><path id="Pockinger_Pferd" fill="#FFFFFF" d="M775,317.8c-6.7-8.7-29.2-31.2-49.1-49.9c-13.7-12.9-26.2-24-31.4-27.5 c-12.7-8.7-12.2-3.3-11.8,1.1c0.4,3.9,2.1,43.3-9.6,44.4c-27.5,2.6-29,13.9-37.3,23.3c-8.4,9.5-50.6,53.7-57.9,56.9 c-27.1,11.8-23.2,25.9-22.5,33.7c2.9,31,18.5,9.8,27.8,1.3c2.3-2.1,9.1-4,13.5-3.3c2.1,0.4,4.9,1.2,6.2,3.4 c2.3,3.7-6.9,10.5-16.1,17.3c-9.2,6.8-10.3,16.8-6.2,18.4c4.1,1.6,14.3,4.6,27.2-4.6c7.2-5.1,27.2-26.3,60.5-29.4 c33.3-3.1,24,23.4,21,33.6c-3,10.2-10.6,34.6-17.3,47.1c-6.7,12.5-14,19.1-8.6,34.4c5.4,15.3,36.8,34.1,52.9,36.5 c16,2.4,43.3-2.1,51.7,3s20.8,31.6,28.6,30.9c5.9-0.6,11-8.9,20.5-33.6c9.5-24.6,10.5-56.3,8.7-117.4 C824,376.4,784.6,330.4,775,317.8z M659.6,330.7c-0.8,2.6-6.9,3.7-10.5,2.6c-3.6-1.1-7.3-2.9-5.1-6.7c1.3-2.4,5-4.7,9.1-3.2 C656.5,324.8,660.4,328.1,659.6,330.7z"/></g><g id="Ring"><path d="M500,100c54,0,106.4,10.6,155.7,31.4c47.6,20.1,90.4,49,127.2,85.8c36.8,36.8,65.6,79.5,85.8,127.2 C889.4,393.6,900,446,900,500s-10.6,106.4-31.4,155.7c-20.1,47.6-49,90.4-85.8,127.2c-36.8,36.8-79.5,65.6-127.2,85.8 C606.4,889.4,554,900,500,900s-106.4-10.6-155.7-31.4c-47.6-20.1-90.4-49-127.2-85.8c-36.8-36.8-65.6-79.5-85.8-127.2 C110.6,606.4,100,554,100,500s10.6-106.4,31.4-155.7c20.1-47.6,49-90.4,85.8-127.2c36.8-36.8,79.5-65.6,127.2-85.8 C393.6,110.6,446,100,500,100 M500,0C223.9,0,0,223.9,0,500s223.9,500,500,500s500-223.9,500-500S776.1,0,500,0L500,0z"/><g><path fill="#FFFFFF" d="M338.7,941.9l15.6-48.5l21.2,6.8c5.9,1.9,9.7,4.7,11.5,8.5c1.8,3.8,2.1,7.8,0.7,12c-1.3,4-3.9,7-7.7,9.1 c-3.9,2.1-8.6,2.3-14.2,0.5l-12.4-4l-5.9,18.4L338.7,941.9z M368.8,922.6c2.6,0.8,4.7,0.7,6.4-0.3c1.7-1,2.9-2.5,3.5-4.4 c0.6-1.8,0.5-3.7-0.2-5.5c-0.7-1.8-2.4-3.2-5.2-4.1l-12.9-4.2l-4.6,14.3L368.8,922.6z"/><path fill="#FFFFFF" d="M421.7,963.7l-1.9-11.8l-20.8-4.2l-6.3,10.1l-9.5-1.9l29.6-46.1l8.9,1.8l9.5,53.9L421.7,963.7z M418.5,943.7l-2.8-16.2c-0.4-2-0.6-3.8-0.7-5.4c-0.7,1.3-1.6,2.9-2.7,4.7l-8.9,13.8L418.5,943.7z"/><path fill="#FFFFFF" d="M465.9,969.7c-4.9-0.4-9-1.8-12.4-4.4c-3.4-2.6-5.6-6-6.8-10.2l8.7-2.4c0.9,2.5,2.4,4.5,4.4,6 c2,1.6,4.3,2.5,7,2.7c2.8,0.2,5.1-0.2,6.8-1.3c1.7-1.1,2.7-2.8,2.9-5.1c0.1-0.9-0.1-1.8-0.5-2.6s-0.9-1.5-1.4-2.1 c-0.5-0.6-1.4-1.2-2.5-1.8c-1.1-0.6-2.1-1.1-2.9-1.5c-0.8-0.4-2-0.9-3.5-1.5c-2-0.8-3.5-1.5-4.6-1.9c-1.1-0.5-2.4-1.2-4.1-2.2 c-1.6-1-2.9-2-3.7-3c-0.8-1-1.5-2.3-2.1-3.8c-0.6-1.6-0.8-3.3-0.7-5.1c0.3-3.9,2.1-7,5.4-9.4c3.3-2.4,7.7-3.4,13.1-3 c4.5,0.3,8.1,1.6,10.9,3.8c2.8,2.2,4.6,5,5.4,8.3l-8.4,2c-1.4-3.6-4.4-5.6-9.1-5.9c-2.4-0.2-4.3,0.2-5.7,1 c-1.4,0.8-2.2,2.1-2.3,3.9c-0.1,1.2,0.4,2.2,1.3,3.2c1,1,2,1.8,3.2,2.3c1.2,0.5,2.9,1.3,5.2,2.2c1.5,0.6,2.6,1.1,3.4,1.4 c0.8,0.3,1.8,0.9,3.2,1.6c1.4,0.7,2.5,1.4,3.2,1.9c0.8,0.6,1.7,1.3,2.6,2.3c1,0.9,1.7,1.9,2.2,2.9c0.5,1,0.9,2.1,1.2,3.4 c0.3,1.3,0.4,2.7,0.3,4.2c-0.3,4.7-2.4,8.4-6.1,10.8C475.9,969,471.3,970.1,465.9,969.7z"/><path fill="#FFFFFF" d="M522.2,970.4c-4.9,0.2-9.2-0.8-12.8-2.9s-6.3-5.3-8-9.3l8.3-3.4c1.2,2.3,2.9,4.2,5.1,5.5 c2.2,1.3,4.6,1.9,7.3,1.8c2.8-0.1,5-0.8,6.6-2.1c1.6-1.3,2.3-3.1,2.2-5.4c0-0.9-0.3-1.8-0.8-2.6c-0.5-0.8-1-1.4-1.7-1.9 c-0.6-0.5-1.5-1-2.7-1.5c-1.2-0.5-2.2-0.9-3-1.1c-0.8-0.3-2-0.6-3.6-1c-2.1-0.6-3.7-1-4.8-1.4c-1.1-0.3-2.5-0.9-4.3-1.7 c-1.7-0.8-3.1-1.7-4-2.5c-0.9-0.9-1.8-2.1-2.5-3.6s-1.2-3.2-1.3-5c-0.2-3.9,1.2-7.2,4.3-10c3-2.8,7.3-4.3,12.7-4.5 c4.5-0.2,8.2,0.6,11.3,2.5c3,1.9,5.2,4.4,6.3,7.6l-8.1,3c-1.8-3.4-5-5-9.7-4.8c-2.4,0.1-4.2,0.7-5.5,1.7c-1.3,1-1.9,2.4-1.8,4.1 c0.1,1.2,0.6,2.2,1.7,3.1s2.2,1.5,3.5,1.9c1.2,0.4,3,0.9,5.4,1.5c1.6,0.5,2.7,0.8,3.5,1c0.8,0.2,1.9,0.6,3.4,1.2 c1.5,0.6,2.6,1.1,3.4,1.6s1.8,1.1,2.9,1.9s1.9,1.7,2.5,2.6s1.1,2,1.6,3.3c0.5,1.3,0.7,2.7,0.8,4.2c0.2,4.8-1.4,8.6-4.8,11.5 C532.1,968.5,527.7,970.1,522.2,970.4z"/><path fill="#FFFFFF" d="M594.7,960.7l-6-10.3l-20.9,3.6l-2.3,11.7l-9.6,1.6l11-53.6l9-1.5l28.2,46.9L594.7,960.7z M584.5,943.2 l-8.4-14.1c-1.1-1.7-1.9-3.3-2.6-4.8c-0.2,1.5-0.4,3.3-0.9,5.4l-3.3,16.1L584.5,943.2z"/><path fill="#FFFFFF" d="M641.5,949.2c-2.8,0.9-5.4,1.3-7.9,1.4c-2.5,0-4.9-0.4-7.3-1.2s-4.5-2.4-6.4-4.6c-1.9-2.2-3.4-5.1-4.5-8.6 L606,906l8.8-2.8l9.5,30.1c1.3,4.2,3.2,6.9,5.7,7.9c2.5,1.1,5.5,1.1,9.1-0.1c3.6-1.1,6.1-2.9,7.5-5.2c1.4-2.3,1.4-5.6,0.1-9.7 l-9.5-30.1l8.8-2.8l9.5,30.1c1.1,3.5,1.5,6.7,1.3,9.6c-0.2,2.9-1.1,5.4-2.5,7.4c-1.4,2-3.2,3.8-5.3,5.2 C646.8,947.2,644.3,948.3,641.5,949.2z"/></g><g><path fill="#FFFFFF" d="M138.6,287.6c-2.5,4.2-5.6,7.3-9.5,9.1c-3.8,1.9-7.9,2.4-12.1,1.6l1.7-8.8c2.6,0.2,5.1-0.2,7.4-1.3 c2.3-1.1,4.1-2.8,5.5-5.1c1.4-2.4,2-4.6,1.8-6.7c-0.2-2-1.3-3.6-3.3-4.8c-0.8-0.5-1.7-0.7-2.6-0.7c-0.9,0-1.8,0.1-2.5,0.3 c-0.8,0.2-1.7,0.7-2.7,1.5c-1.1,0.7-1.9,1.4-2.6,1.9c-0.7,0.5-1.6,1.4-2.9,2.5c-1.6,1.4-2.9,2.5-3.8,3.2c-0.9,0.7-2.2,1.6-3.8,2.6 c-1.6,1-3.1,1.7-4.3,2c-1.2,0.3-2.7,0.4-4.4,0.2c-1.7-0.2-3.3-0.7-4.9-1.7c-3.3-2-5.4-5-6-9c-0.7-4.1,0.4-8.4,3.1-13.1 c2.3-3.9,5-6.6,8.3-8.1c3.2-1.5,6.5-1.9,9.8-1.1l-1.9,8.4c-3.8-0.4-6.9,1.5-9.3,5.5c-1.2,2.1-1.8,3.9-1.6,5.6 c0.1,1.6,1,2.9,2.5,3.8c1,0.6,2.2,0.7,3.5,0.2c1.3-0.4,2.5-1,3.5-1.8c1-0.8,2.4-2,4.2-3.7c1.2-1,2.2-1.8,2.8-2.4 c0.6-0.5,1.6-1.3,2.8-2.2c1.3-0.9,2.3-1.6,3.2-2c0.9-0.4,1.9-0.9,3.2-1.4c1.3-0.5,2.5-0.7,3.6-0.7c1.1,0,2.3,0.1,3.6,0.4 c1.3,0.3,2.6,0.8,3.9,1.6c4.1,2.4,6.4,5.8,7,10.3C142.4,278.4,141.3,282.9,138.6,287.6z"/><path fill="#FFFFFF" d="M165.6,247.3c-1.9,2.6-4.1,4.6-6.4,6.1c-2.4,1.5-4.7,2.4-7.1,2.7c-2.4,0.3-4.8,0.2-7.3-0.3 c-2.5-0.5-4.9-1.3-7.2-2.3c-2.2-1.1-4.4-2.4-6.5-4c-2.5-1.9-4.7-4-6.6-6.4c-1.9-2.4-3.4-5.1-4.5-8c-1.1-2.9-1.4-6.1-0.9-9.5 c0.5-3.4,1.9-6.6,4.3-9.8c2.8-3.8,6.1-6.3,9.7-7.7c3.6-1.3,7-1.6,10.2-0.8l-2.1,8.7c-2.5-0.1-4.6,0.2-6.4,0.8 c-1.7,0.7-3.3,2-4.7,3.9c-1.4,1.9-2.2,3.8-2.4,5.9s0.2,4,1.1,5.9c0.9,1.8,2,3.5,3.4,5.1c1.4,1.6,2.9,3,4.6,4.2 c3.8,2.8,7.8,4.5,12,4.8c4.2,0.4,7.6-1.1,10.1-4.5c2.4-3.3,2.7-7.3,0.9-12.1l7.5-5C171.4,232.9,170.8,240.3,165.6,247.3z"/><path fill="#FFFFFF" d="M204.2,201.6l-16-15.3L172,203.3l16,15.3l-6.3,6.6L144.8,190l6.3-6.6l14.9,14.2l16.2-16.9l-14.9-14.2 l6.3-6.6l36.9,35.2L204.2,201.6z"/><path fill="#FFFFFF" d="M219.8,187.1l-33.6-38.3l6.9-6l33.6,38.3L219.8,187.1z"/><path fill="#FFFFFF" d="M236.1,172.8l-30.4-40.9l28-20.8l4.9,6.6l-20.6,15.3l7.3,9.9l12.7-9.4l4.9,6.6l-12.7,9.4l8.3,11.2l22-16.3 l4.9,6.6L236.1,172.8z"/><path fill="#FFFFFF" d="M247.3,102l14.3-8.3c3.1-1.8,6.2-3,9.3-3.7c3-0.6,5.8-0.7,8.3-0.3c2.5,0.4,4.8,1.3,7.1,2.5 c2.2,1.3,4.2,2.8,5.9,4.6c1.7,1.8,3.2,3.8,4.5,6.1c1.2,2.1,2.2,4.3,2.9,6.6c0.7,2.3,1.1,4.7,1.1,7.3c0,2.6-0.4,5.1-1.3,7.5 c-0.8,2.4-2.3,4.8-4.4,7.2c-2.1,2.4-4.8,4.5-8.1,6.4l-14,8.1L247.3,102z M283.9,130.2c2.3-1.4,4.1-3,5.4-4.9c1.3-1.9,2-3.9,2.1-6 c0.1-2.1-0.1-4.1-0.6-6c-0.5-1.9-1.3-3.8-2.4-5.7c-2.4-4.1-5.5-7-9.3-8.7c-3.8-1.7-7.8-1.4-11.9,1l-7.9,4.6l17.3,29.9L283.9,130.2 z"/><path fill="#FFFFFF" d="M334.3,114.9c-4.5,1.9-8.8,2.5-13,1.8c-4.2-0.8-7.8-2.7-10.7-5.9l6.6-6.1c2,1.7,4.2,2.9,6.7,3.3 c2.5,0.5,5,0.2,7.5-0.9c2.6-1.1,4.4-2.6,5.4-4.3c1-1.8,1.1-3.7,0.2-5.8c-0.4-0.8-0.9-1.5-1.7-2.1c-0.7-0.6-1.5-1-2.2-1.2 c-0.8-0.3-1.8-0.4-3.1-0.4c-1.3,0-2.4,0-3.2,0c-0.9,0-2.1,0.1-3.8,0.3c-2.1,0.2-3.8,0.3-5,0.4c-1.2,0.1-2.7,0-4.6-0.1 c-1.9-0.1-3.5-0.5-4.7-1c-1.2-0.5-2.4-1.3-3.6-2.4c-1.2-1.1-2.2-2.5-3-4.2c-1.5-3.6-1.4-7.2,0.5-10.8c1.9-3.7,5.3-6.6,10.2-8.7 c4.1-1.8,7.9-2.3,11.4-1.7c3.5,0.7,6.4,2.3,8.6,4.9l-6.5,5.7c-2.9-2.6-6.5-2.9-10.8-1.1c-2.2,0.9-3.7,2.1-4.6,3.5 c-0.9,1.4-1,2.9-0.3,4.5c0.5,1.1,1.4,1.8,2.7,2.3c1.3,0.4,2.6,0.6,3.9,0.6c1.3-0.1,3.1-0.2,5.6-0.5c1.6-0.1,2.8-0.2,3.7-0.3 c0.8-0.1,2-0.1,3.6-0.1c1.6,0,2.8,0.1,3.8,0.2c0.9,0.1,2.1,0.4,3.4,0.8c1.3,0.4,2.4,0.9,3.3,1.6c0.9,0.6,1.8,1.5,2.7,2.5 c0.9,1,1.6,2.2,2.2,3.6c1.9,4.4,1.7,8.5-0.4,12.4C342.9,109.7,339.3,112.7,334.3,114.9z"/><path fill="#FFFFFF" d="M360,103.4l-14.7-48.8l22.7-6.8c5.9-1.8,10.6-1.7,14.1,0.3c3.5,2,5.9,5.1,7.2,9.5c0.9,3,0.9,6.1-0.1,9.3 c-1,3.2-3.1,5.8-6.2,7.8l16.3,16.9l-9.9,3l-15.6-16.1L363,81.7l5.7,19.1L360,103.4z M360.6,73.7l14.1-4.2c2.6-0.8,4.4-2,5.2-3.7 c0.8-1.7,0.9-3.5,0.3-5.5c-0.6-2-1.7-3.4-3.2-4.4c-1.6-1-3.7-1-6.5-0.2l-14.1,4.2L360.6,73.7z"/><path fill="#FFFFFF" d="M409.7,89.7l-10.4-49.9l9-1.9l10.4,49.9L409.7,89.7z"/><path fill="#FFFFFF" d="M451.3,83.7c-3.2,0.4-6.1,0.2-8.8-0.5c-2.7-0.7-5-1.8-6.8-3.3c-1.8-1.5-3.5-3.3-4.9-5.5 c-1.4-2.2-2.5-4.4-3.3-6.8c-0.8-2.4-1.3-4.8-1.6-7.4c-0.4-3.1-0.3-6.1,0.1-9.2c0.5-3,1.4-6,2.7-8.8c1.4-2.8,3.4-5.2,6.2-7.2 c2.8-2,6.1-3.2,10-3.7c4.7-0.6,8.8,0,12.2,1.7c3.4,1.7,6,4,7.6,6.8l-7.8,4.5c-1.7-1.9-3.3-3.2-5-4c-1.7-0.8-3.7-1-6.1-0.7 c-2.3,0.3-4.3,1.1-5.9,2.4c-1.6,1.3-2.8,2.9-3.5,4.8c-0.7,1.9-1.2,3.9-1.4,6c-0.2,2.1-0.2,4.1,0.1,6.3c0.6,4.7,2.2,8.7,4.8,12 c2.6,3.3,6,4.7,10.2,4.2c4-0.5,7.2-3.1,9.4-7.7l8.8,2C465.7,77.9,460,82.6,451.3,83.7z"/><path fill="#FFFFFF" d="M510.9,79.8l-0.4-22.1l-23.4,0.4l0.4,22.1l-9.2,0.1l-0.8-51l9.2-0.1l0.3,20.6l23.4-0.4l-0.3-20.6l9.1-0.1 l0.8,51L510.9,79.8z"/><path fill="#FFFFFF" d="M557.3,40.9l-4.8,42.3l-9.1-1l4.8-42.3L533,38.1l0.9-8.3l39.4,4.5l-0.9,8.3L557.3,40.9z"/><path fill="#FFFFFF" d="M575.7,86.5l11.1-49.7l34,7.6l-1.8,8L594,46.8l-2.7,12l15.4,3.5l-1.8,8l-15.4-3.5l-3.1,13.6l26.7,6l-1.8,8 L575.7,86.5z"/><path fill="#FFFFFF" d="M620,96.9l16.8-48.1l22.4,7.8c5.8,2,9.6,4.9,11.2,8.5c1.7,3.7,1.7,7.6,0.3,11.9c-1,3-2.9,5.5-5.6,7.5 c-2.7,2-5.9,2.9-9.6,2.7l3.2,23.3l-9.7-3.4l-3.2-22.2l-10.5-3.7l-6.6,18.8L620,96.9z M637.9,73.2l13.9,4.8 c2.6,0.9,4.7,0.9,6.4,0.1c1.7-0.9,2.8-2.3,3.5-4.3c0.7-1.9,0.7-3.7,0-5.5c-0.7-1.7-2.4-3-5.1-4l-13.9-4.8L637.9,73.2z"/><path fill="#FFFFFF" d="M686.4,124.5c-3.6-1.8-6.4-4-8.5-6.7c-2.1-2.7-3.4-5.6-4-8.6c-0.5-3.1-0.5-6.2,0-9.3s1.5-6.3,3.1-9.4 c1.1-2.3,2.5-4.4,4.1-6.3c1.6-2,3.5-3.7,5.7-5.2c2.1-1.5,4.4-2.6,6.8-3.4c2.4-0.8,4.9-1,7.8-0.8c2.8,0.2,5.6,1,8.4,2.4 c4.2,2.1,7.2,4.5,9,7.4c1.8,2.9,2.9,6.2,3.3,10l-9.3,0.4c-0.8-5.1-3-8.5-6.7-10.3c-2.3-1.1-4.5-1.6-6.7-1.5s-4.2,0.8-5.9,2 c-1.7,1.2-3.2,2.6-4.5,4.2c-1.3,1.6-2.4,3.3-3.3,5.3c-2.2,4.5-3,8.9-2.5,13c0.6,4.1,3,7.2,7.1,9.3c2.7,1.3,5.3,1.6,7.8,0.8 c2.6-0.8,4.5-2.4,5.6-4.8l0.4-0.7l-8.4-4.1l3.6-7.4l16.8,8.3l-3.1,6.3c-2.8,5.6-6.6,9.2-11.4,10.7 C696.6,127.5,691.6,127,686.4,124.5z"/><path fill="#FFFFFF" d="M712.6,137.2l27.8-42.7l19.9,12.9c5.2,3.4,8.1,7,8.9,11c0.7,4-0.1,7.8-2.6,11.6c-1.7,2.6-4.1,4.6-7.2,5.9 s-6.4,1.4-10,0.3l-2.4,23.4l-8.6-5.6l2.2-22.4l-9.4-6.1l-10.9,16.7L712.6,137.2z M735.7,118.5l12.3,8c2.3,1.5,4.4,2,6.2,1.6 c1.8-0.4,3.3-1.5,4.4-3.3c1.1-1.7,1.5-3.5,1.3-5.3s-1.6-3.5-4-5.1l-12.3-8L735.7,118.5z"/><path fill="#FFFFFF" d="M769.7,179.1c-2.2-1.9-4-3.8-5.4-5.9c-1.4-2.1-2.3-4.3-2.9-6.8s-0.4-5.1,0.5-7.9c0.9-2.8,2.5-5.6,4.9-8.4 l20.3-24.1l7,5.9L773.8,156c-2.8,3.4-4.1,6.4-3.7,9c0.4,2.7,2,5.2,4.9,7.6c2.9,2.4,5.7,3.6,8.4,3.5c2.7-0.1,5.5-1.8,8.3-5.1 L812,147l7,5.9L798.7,177c-2.3,2.8-4.8,4.9-7.4,6.2c-2.6,1.4-5.1,2-7.6,1.9c-2.5-0.1-4.9-0.6-7.2-1.6 C774.2,182.5,771.9,181,769.7,179.1z"/><path fill="#FFFFFF" d="M794.2,199.7l37.2-34.9l15.2,16.2c4.2,4.5,6.2,8.9,6,13.1c-0.2,4.2-2,7.8-5.2,10.9 c-3,2.9-6.8,4.3-11.2,4.3c-4.4,0-8.6-2.2-12.7-6.5l-8.9-9.5l-14.1,13.2L794.2,199.7z M829.9,197.4c1.8,2,3.8,2.9,5.8,2.9 c2-0.1,3.8-0.8,5.2-2.2c1.4-1.3,2.3-3,2.5-4.9c0.3-2-0.6-4-2.5-6.1l-9.3-9.9l-11,10.3L829.9,197.4z"/><path fill="#FFFFFF" d="M826.1,234.6l40.8-30.5l13.3,17.8c3.7,4.9,5.2,9.5,4.5,13.6c-0.7,4.2-2.8,7.6-6.4,10.2 c-3.3,2.5-7.2,3.5-11.6,3c-4.4-0.5-8.3-3.1-11.9-7.9l-7.8-10.5L831.5,242L826.1,234.6z M861.8,236.3c1.6,2.2,3.4,3.3,5.4,3.5 c2,0.2,3.8-0.4,5.4-1.6c1.6-1.2,2.6-2.7,3.1-4.6c0.5-1.9-0.1-4-1.8-6.3l-8.1-10.8l-12.1,9L861.8,236.3z"/><path fill="#FFFFFF" d="M853.8,272.9l43.9-25.8l17.7,30.1l-7.1,4.2l-13-22.1l-10.6,6.2l8,13.6l-7.1,4.2l-8-13.6l-12.1,7.1 l13.9,23.6l-7.1,4.2L853.8,272.9z"/></g></g></svg>