<?xml version="1.0" encoding="UTF-8"?><svg xmlns="http://www.w3.org/2000/svg" id="Ebene_1" version="1.1" viewBox="0 0 300 300"><defs><style> .st0 { fill: #ffce08; } .st0, .st1, .st2, .st3 { fill-rule: evenodd; } .st1 { fill: #b67eff; } .st2 { fill: #ff6811; } .st3 { fill: #3288ff; } </style></defs><path class="st1" d="M78.1,42.2H21.7v107.8l41.1-41.1v41.1l41.1-41.1v41.1h35.9V42.2h-20.5l-41.1,41.1v-41.1Z"/><path class="st2" d="M139.7,150h77v25.7h-41.1l41.1,41.1h-41.1l41.1,41.1h-77v-107.8Z"/><path class="st0" d="M21.7,150h77l41.1,41.1v25.7h-41.1v-41.1h-41.1l41.1,41.1,41.1,41.1h-41.1l-41.1-41.1v41.1H21.7v-107.8Z"/><path class="st3" d="M193.6,42.2c-29.8,0-53.9,24.1-53.9,53.9s24.1,53.9,53.9,53.9h30.8c29.8,0,53.9-24.1,53.9-53.9s-24.1-53.9-53.9-53.9h-30.8ZM193.6,78.1c-9.9,0-18,8-18,18s8,18,18,18h30.8c9.9,0,18-8,18-18s-8-18-18-18h-30.8Z"/></svg>